<?xml version="1.0" encoding="utf-8" standalone="no"?>
<!DOCTYPE svg PUBLIC "-//W3C//DTD SVG 1.1//EN"
  "http://www.w3.org/Graphics/SVG/1.1/DTD/svg11.dtd">
<svg xmlns:xlink="http://www.w3.org/1999/xlink" width="864pt" height="576pt" viewBox="0 0 864 576" xmlns="http://www.w3.org/2000/svg" version="1.1">
 <metadata>
  <rdf:RDF xmlns:dc="http://purl.org/dc/elements/1.1/" xmlns:cc="http://creativecommons.org/ns#" xmlns:rdf="http://www.w3.org/1999/02/22-rdf-syntax-ns#">
   <cc:Work>
    <dc:type rdf:resource="http://purl.org/dc/dcmitype/StillImage"/>
    <dc:date>2024-11-18T20:46:08.039179</dc:date>
    <dc:format>image/svg+xml</dc:format>
    <dc:creator>
     <cc:Agent>
      <dc:title>Matplotlib v3.9.2, https://matplotlib.org/</dc:title>
     </cc:Agent>
    </dc:creator>
   </cc:Work>
  </rdf:RDF>
 </metadata>
 <defs>
  <style type="text/css">*{stroke-linejoin: round; stroke-linecap: butt}</style>
 </defs>
 <g id="figure_1">
  <g id="patch_1">
   <path d="M 0 576 
L 864 576 
L 864 0 
L 0 0 
z
" style="fill: #ffffff"/>
  </g>
  <g id="axes_1">
   <g id="patch_2">
    <path d="M 50.87 241.84 
L 422 241.84 
L 422 26.88 
L 50.87 26.88 
z
" style="fill: #ffffff"/>
   </g>
   <g id="patch_3">
    <path d="M 67.739545 241.84 
L 85.496962 241.84 
L 85.496962 234.90021 
L 67.739545 234.90021 
z
" clip-path="url(#p574a2dbaf6)" style="fill: #1f77b4; fill-opacity: 0.5; stroke: #000000; stroke-linejoin: miter"/>
   </g>
   <g id="patch_4">
    <path d="M 85.496962 241.84 
L 103.254378 241.84 
L 103.254378 234.90021 
L 85.496962 234.90021 
z
" clip-path="url(#p574a2dbaf6)" style="fill: #1f77b4; fill-opacity: 0.5; stroke: #000000; stroke-linejoin: miter"/>
   </g>
   <g id="patch_5">
    <path d="M 103.254378 241.84 
L 121.011794 241.84 
L 121.011794 210.610944 
L 103.254378 210.610944 
z
" clip-path="url(#p574a2dbaf6)" style="fill: #1f77b4; fill-opacity: 0.5; stroke: #000000; stroke-linejoin: miter"/>
   </g>
   <g id="patch_6">
    <path d="M 121.011794 241.84 
L 138.769211 241.84 
L 138.769211 185.165047 
L 121.011794 185.165047 
z
" clip-path="url(#p574a2dbaf6)" style="fill: #1f77b4; fill-opacity: 0.5; stroke: #000000; stroke-linejoin: miter"/>
   </g>
   <g id="patch_7">
    <path d="M 138.769211 241.84 
L 156.526627 241.84 
L 156.526627 167.815572 
L 138.769211 167.815572 
z
" clip-path="url(#p574a2dbaf6)" style="fill: #1f77b4; fill-opacity: 0.5; stroke: #000000; stroke-linejoin: miter"/>
   </g>
   <g id="patch_8">
    <path d="M 156.526627 241.84 
L 174.284043 241.84 
L 174.284043 171.285467 
L 156.526627 171.285467 
z
" clip-path="url(#p574a2dbaf6)" style="fill: #1f77b4; fill-opacity: 0.5; stroke: #000000; stroke-linejoin: miter"/>
   </g>
   <g id="patch_9">
    <path d="M 174.284043 241.84 
L 192.041459 241.84 
L 192.041459 96.104407 
L 174.284043 96.104407 
z
" clip-path="url(#p574a2dbaf6)" style="fill: #1f77b4; fill-opacity: 0.5; stroke: #000000; stroke-linejoin: miter"/>
   </g>
   <g id="patch_10">
    <path d="M 192.041459 241.84 
L 209.798876 241.84 
L 209.798876 76.441668 
L 192.041459 76.441668 
z
" clip-path="url(#p574a2dbaf6)" style="fill: #1f77b4; fill-opacity: 0.5; stroke: #000000; stroke-linejoin: miter"/>
   </g>
   <g id="patch_11">
    <path d="M 209.798876 241.84 
L 227.556292 241.84 
L 227.556292 64.875351 
L 209.798876 64.875351 
z
" clip-path="url(#p574a2dbaf6)" style="fill: #1f77b4; fill-opacity: 0.5; stroke: #000000; stroke-linejoin: miter"/>
   </g>
   <g id="patch_12">
    <path d="M 227.556292 241.84 
L 245.313708 241.84 
L 245.313708 91.47788 
L 227.556292 91.47788 
z
" clip-path="url(#p574a2dbaf6)" style="fill: #1f77b4; fill-opacity: 0.5; stroke: #000000; stroke-linejoin: miter"/>
   </g>
   <g id="patch_13">
    <path d="M 245.313708 241.84 
L 263.071124 241.84 
L 263.071124 85.694722 
L 245.313708 85.694722 
z
" clip-path="url(#p574a2dbaf6)" style="fill: #1f77b4; fill-opacity: 0.5; stroke: #000000; stroke-linejoin: miter"/>
   </g>
   <g id="patch_14">
    <path d="M 263.071124 241.84 
L 280.828541 241.84 
L 280.828541 94.947775 
L 263.071124 94.947775 
z
" clip-path="url(#p574a2dbaf6)" style="fill: #1f77b4; fill-opacity: 0.5; stroke: #000000; stroke-linejoin: miter"/>
   </g>
   <g id="patch_15">
    <path d="M 280.828541 241.84 
L 298.585957 241.84 
L 298.585957 107.670724 
L 280.828541 107.670724 
z
" clip-path="url(#p574a2dbaf6)" style="fill: #1f77b4; fill-opacity: 0.5; stroke: #000000; stroke-linejoin: miter"/>
   </g>
   <g id="patch_16">
    <path d="M 298.585957 241.84 
L 316.343373 241.84 
L 316.343373 37.11619 
L 298.585957 37.11619 
z
" clip-path="url(#p574a2dbaf6)" style="fill: #1f77b4; fill-opacity: 0.5; stroke: #000000; stroke-linejoin: miter"/>
   </g>
   <g id="patch_17">
    <path d="M 316.343373 241.84 
L 334.100789 241.84 
L 334.100789 67.188614 
L 316.343373 67.188614 
z
" clip-path="url(#p574a2dbaf6)" style="fill: #1f77b4; fill-opacity: 0.5; stroke: #000000; stroke-linejoin: miter"/>
   </g>
   <g id="patch_18">
    <path d="M 334.100789 241.84 
L 351.858206 241.84 
L 351.858206 78.754931 
L 334.100789 78.754931 
z
" clip-path="url(#p574a2dbaf6)" style="fill: #1f77b4; fill-opacity: 0.5; stroke: #000000; stroke-linejoin: miter"/>
   </g>
   <g id="patch_19">
    <path d="M 351.858206 241.84 
L 369.615622 241.84 
L 369.615622 123.863567 
L 351.858206 123.863567 
z
" clip-path="url(#p574a2dbaf6)" style="fill: #1f77b4; fill-opacity: 0.5; stroke: #000000; stroke-linejoin: miter"/>
   </g>
   <g id="patch_20">
    <path d="M 369.615622 241.84 
L 387.373038 241.84 
L 387.373038 211.767576 
L 369.615622 211.767576 
z
" clip-path="url(#p574a2dbaf6)" style="fill: #1f77b4; fill-opacity: 0.5; stroke: #000000; stroke-linejoin: miter"/>
   </g>
   <g id="patch_21">
    <path d="M 387.373038 241.84 
L 405.130455 241.84 
L 405.130455 236.056842 
L 387.373038 236.056842 
z
" clip-path="url(#p574a2dbaf6)" style="fill: #1f77b4; fill-opacity: 0.5; stroke: #000000; stroke-linejoin: miter"/>
   </g>
   <g id="matplotlib.axis_1">
    <g id="xtick_1">
     <g id="line2d_1">
      <defs>
       <path id="mdd441fb08d" d="M 0 0 
L 0 3.5 
" style="stroke: #000000; stroke-width: 0.8"/>
      </defs>
      <g>
       <use xlink:href="#mdd441fb08d" x="96.605309" y="241.84" style="stroke: #000000; stroke-width: 0.8"/>
      </g>
     </g>
     <g id="text_1">
      <!-- 2 -->
      <g transform="translate(93.424059 256.438437) scale(0.1 -0.1)">
       <defs>
        <path id="DejaVuSans-32" d="M 1228 531 
L 3431 531 
L 3431 0 
L 469 0 
L 469 531 
Q 828 903 1448 1529 
Q 2069 2156 2228 2338 
Q 2531 2678 2651 2914 
Q 2772 3150 2772 3378 
Q 2772 3750 2511 3984 
Q 2250 4219 1831 4219 
Q 1534 4219 1204 4116 
Q 875 4013 500 3803 
L 500 4441 
Q 881 4594 1212 4672 
Q 1544 4750 1819 4750 
Q 2544 4750 2975 4387 
Q 3406 4025 3406 3419 
Q 3406 3131 3298 2873 
Q 3191 2616 2906 2266 
Q 2828 2175 2409 1742 
Q 1991 1309 1228 531 
z
" transform="scale(0.015625)"/>
       </defs>
       <use xlink:href="#DejaVuSans-32"/>
      </g>
     </g>
    </g>
    <g id="xtick_2">
     <g id="line2d_2">
      <g>
       <use xlink:href="#mdd441fb08d" x="145.553268" y="241.84" style="stroke: #000000; stroke-width: 0.8"/>
      </g>
     </g>
     <g id="text_2">
      <!-- 3 -->
      <g transform="translate(142.372018 256.438437) scale(0.1 -0.1)">
       <defs>
        <path id="DejaVuSans-33" d="M 2597 2516 
Q 3050 2419 3304 2112 
Q 3559 1806 3559 1356 
Q 3559 666 3084 287 
Q 2609 -91 1734 -91 
Q 1441 -91 1130 -33 
Q 819 25 488 141 
L 488 750 
Q 750 597 1062 519 
Q 1375 441 1716 441 
Q 2309 441 2620 675 
Q 2931 909 2931 1356 
Q 2931 1769 2642 2001 
Q 2353 2234 1838 2234 
L 1294 2234 
L 1294 2753 
L 1863 2753 
Q 2328 2753 2575 2939 
Q 2822 3125 2822 3475 
Q 2822 3834 2567 4026 
Q 2313 4219 1838 4219 
Q 1578 4219 1281 4162 
Q 984 4106 628 3988 
L 628 4550 
Q 988 4650 1302 4700 
Q 1616 4750 1894 4750 
Q 2613 4750 3031 4423 
Q 3450 4097 3450 3541 
Q 3450 3153 3228 2886 
Q 3006 2619 2597 2516 
z
" transform="scale(0.015625)"/>
       </defs>
       <use xlink:href="#DejaVuSans-33"/>
      </g>
     </g>
    </g>
    <g id="xtick_3">
     <g id="line2d_3">
      <g>
       <use xlink:href="#mdd441fb08d" x="194.501228" y="241.84" style="stroke: #000000; stroke-width: 0.8"/>
      </g>
     </g>
     <g id="text_3">
      <!-- 4 -->
      <g transform="translate(191.319978 256.438437) scale(0.1 -0.1)">
       <defs>
        <path id="DejaVuSans-34" d="M 2419 4116 
L 825 1625 
L 2419 1625 
L 2419 4116 
z
M 2253 4666 
L 3047 4666 
L 3047 1625 
L 3713 1625 
L 3713 1100 
L 3047 1100 
L 3047 0 
L 2419 0 
L 2419 1100 
L 313 1100 
L 313 1709 
L 2253 4666 
z
" transform="scale(0.015625)"/>
       </defs>
       <use xlink:href="#DejaVuSans-34"/>
      </g>
     </g>
    </g>
    <g id="xtick_4">
     <g id="line2d_4">
      <g>
       <use xlink:href="#mdd441fb08d" x="243.449187" y="241.84" style="stroke: #000000; stroke-width: 0.8"/>
      </g>
     </g>
     <g id="text_4">
      <!-- 5 -->
      <g transform="translate(240.267937 256.438437) scale(0.1 -0.1)">
       <defs>
        <path id="DejaVuSans-35" d="M 691 4666 
L 3169 4666 
L 3169 4134 
L 1269 4134 
L 1269 2991 
Q 1406 3038 1543 3061 
Q 1681 3084 1819 3084 
Q 2600 3084 3056 2656 
Q 3513 2228 3513 1497 
Q 3513 744 3044 326 
Q 2575 -91 1722 -91 
Q 1428 -91 1123 -41 
Q 819 9 494 109 
L 494 744 
Q 775 591 1075 516 
Q 1375 441 1709 441 
Q 2250 441 2565 725 
Q 2881 1009 2881 1497 
Q 2881 1984 2565 2268 
Q 2250 2553 1709 2553 
Q 1456 2553 1204 2497 
Q 953 2441 691 2322 
L 691 4666 
z
" transform="scale(0.015625)"/>
       </defs>
       <use xlink:href="#DejaVuSans-35"/>
      </g>
     </g>
    </g>
    <g id="xtick_5">
     <g id="line2d_5">
      <g>
       <use xlink:href="#mdd441fb08d" x="292.397146" y="241.84" style="stroke: #000000; stroke-width: 0.8"/>
      </g>
     </g>
     <g id="text_5">
      <!-- 6 -->
      <g transform="translate(289.215896 256.438437) scale(0.1 -0.1)">
       <defs>
        <path id="DejaVuSans-36" d="M 2113 2584 
Q 1688 2584 1439 2293 
Q 1191 2003 1191 1497 
Q 1191 994 1439 701 
Q 1688 409 2113 409 
Q 2538 409 2786 701 
Q 3034 994 3034 1497 
Q 3034 2003 2786 2293 
Q 2538 2584 2113 2584 
z
M 3366 4563 
L 3366 3988 
Q 3128 4100 2886 4159 
Q 2644 4219 2406 4219 
Q 1781 4219 1451 3797 
Q 1122 3375 1075 2522 
Q 1259 2794 1537 2939 
Q 1816 3084 2150 3084 
Q 2853 3084 3261 2657 
Q 3669 2231 3669 1497 
Q 3669 778 3244 343 
Q 2819 -91 2113 -91 
Q 1303 -91 875 529 
Q 447 1150 447 2328 
Q 447 3434 972 4092 
Q 1497 4750 2381 4750 
Q 2619 4750 2861 4703 
Q 3103 4656 3366 4563 
z
" transform="scale(0.015625)"/>
       </defs>
       <use xlink:href="#DejaVuSans-36"/>
      </g>
     </g>
    </g>
    <g id="xtick_6">
     <g id="line2d_6">
      <g>
       <use xlink:href="#mdd441fb08d" x="341.345105" y="241.84" style="stroke: #000000; stroke-width: 0.8"/>
      </g>
     </g>
     <g id="text_6">
      <!-- 7 -->
      <g transform="translate(338.163855 256.438437) scale(0.1 -0.1)">
       <defs>
        <path id="DejaVuSans-37" d="M 525 4666 
L 3525 4666 
L 3525 4397 
L 1831 0 
L 1172 0 
L 2766 4134 
L 525 4134 
L 525 4666 
z
" transform="scale(0.015625)"/>
       </defs>
       <use xlink:href="#DejaVuSans-37"/>
      </g>
     </g>
    </g>
    <g id="xtick_7">
     <g id="line2d_7">
      <g>
       <use xlink:href="#mdd441fb08d" x="390.293064" y="241.84" style="stroke: #000000; stroke-width: 0.8"/>
      </g>
     </g>
     <g id="text_7">
      <!-- 8 -->
      <g transform="translate(387.111814 256.438437) scale(0.1 -0.1)">
       <defs>
        <path id="DejaVuSans-38" d="M 2034 2216 
Q 1584 2216 1326 1975 
Q 1069 1734 1069 1313 
Q 1069 891 1326 650 
Q 1584 409 2034 409 
Q 2484 409 2743 651 
Q 3003 894 3003 1313 
Q 3003 1734 2745 1975 
Q 2488 2216 2034 2216 
z
M 1403 2484 
Q 997 2584 770 2862 
Q 544 3141 544 3541 
Q 544 4100 942 4425 
Q 1341 4750 2034 4750 
Q 2731 4750 3128 4425 
Q 3525 4100 3525 3541 
Q 3525 3141 3298 2862 
Q 3072 2584 2669 2484 
Q 3125 2378 3379 2068 
Q 3634 1759 3634 1313 
Q 3634 634 3220 271 
Q 2806 -91 2034 -91 
Q 1263 -91 848 271 
Q 434 634 434 1313 
Q 434 1759 690 2068 
Q 947 2378 1403 2484 
z
M 1172 3481 
Q 1172 3119 1398 2916 
Q 1625 2713 2034 2713 
Q 2441 2713 2670 2916 
Q 2900 3119 2900 3481 
Q 2900 3844 2670 4047 
Q 2441 4250 2034 4250 
Q 1625 4250 1398 4047 
Q 1172 3844 1172 3481 
z
" transform="scale(0.015625)"/>
       </defs>
       <use xlink:href="#DejaVuSans-38"/>
      </g>
     </g>
    </g>
    <g id="text_8">
     <!-- oxygen vacancy formation energy (eV) -->
     <g transform="translate(139.002187 270.116562) scale(0.1 -0.1)">
      <defs>
       <path id="DejaVuSans-6f" d="M 1959 3097 
Q 1497 3097 1228 2736 
Q 959 2375 959 1747 
Q 959 1119 1226 758 
Q 1494 397 1959 397 
Q 2419 397 2687 759 
Q 2956 1122 2956 1747 
Q 2956 2369 2687 2733 
Q 2419 3097 1959 3097 
z
M 1959 3584 
Q 2709 3584 3137 3096 
Q 3566 2609 3566 1747 
Q 3566 888 3137 398 
Q 2709 -91 1959 -91 
Q 1206 -91 779 398 
Q 353 888 353 1747 
Q 353 2609 779 3096 
Q 1206 3584 1959 3584 
z
" transform="scale(0.015625)"/>
       <path id="DejaVuSans-78" d="M 3513 3500 
L 2247 1797 
L 3578 0 
L 2900 0 
L 1881 1375 
L 863 0 
L 184 0 
L 1544 1831 
L 300 3500 
L 978 3500 
L 1906 2253 
L 2834 3500 
L 3513 3500 
z
" transform="scale(0.015625)"/>
       <path id="DejaVuSans-79" d="M 2059 -325 
Q 1816 -950 1584 -1140 
Q 1353 -1331 966 -1331 
L 506 -1331 
L 506 -850 
L 844 -850 
Q 1081 -850 1212 -737 
Q 1344 -625 1503 -206 
L 1606 56 
L 191 3500 
L 800 3500 
L 1894 763 
L 2988 3500 
L 3597 3500 
L 2059 -325 
z
" transform="scale(0.015625)"/>
       <path id="DejaVuSans-67" d="M 2906 1791 
Q 2906 2416 2648 2759 
Q 2391 3103 1925 3103 
Q 1463 3103 1205 2759 
Q 947 2416 947 1791 
Q 947 1169 1205 825 
Q 1463 481 1925 481 
Q 2391 481 2648 825 
Q 2906 1169 2906 1791 
z
M 3481 434 
Q 3481 -459 3084 -895 
Q 2688 -1331 1869 -1331 
Q 1566 -1331 1297 -1286 
Q 1028 -1241 775 -1147 
L 775 -588 
Q 1028 -725 1275 -790 
Q 1522 -856 1778 -856 
Q 2344 -856 2625 -561 
Q 2906 -266 2906 331 
L 2906 616 
Q 2728 306 2450 153 
Q 2172 0 1784 0 
Q 1141 0 747 490 
Q 353 981 353 1791 
Q 353 2603 747 3093 
Q 1141 3584 1784 3584 
Q 2172 3584 2450 3431 
Q 2728 3278 2906 2969 
L 2906 3500 
L 3481 3500 
L 3481 434 
z
" transform="scale(0.015625)"/>
       <path id="DejaVuSans-65" d="M 3597 1894 
L 3597 1613 
L 953 1613 
Q 991 1019 1311 708 
Q 1631 397 2203 397 
Q 2534 397 2845 478 
Q 3156 559 3463 722 
L 3463 178 
Q 3153 47 2828 -22 
Q 2503 -91 2169 -91 
Q 1331 -91 842 396 
Q 353 884 353 1716 
Q 353 2575 817 3079 
Q 1281 3584 2069 3584 
Q 2775 3584 3186 3129 
Q 3597 2675 3597 1894 
z
M 3022 2063 
Q 3016 2534 2758 2815 
Q 2500 3097 2075 3097 
Q 1594 3097 1305 2825 
Q 1016 2553 972 2059 
L 3022 2063 
z
" transform="scale(0.015625)"/>
       <path id="DejaVuSans-6e" d="M 3513 2113 
L 3513 0 
L 2938 0 
L 2938 2094 
Q 2938 2591 2744 2837 
Q 2550 3084 2163 3084 
Q 1697 3084 1428 2787 
Q 1159 2491 1159 1978 
L 1159 0 
L 581 0 
L 581 3500 
L 1159 3500 
L 1159 2956 
Q 1366 3272 1645 3428 
Q 1925 3584 2291 3584 
Q 2894 3584 3203 3211 
Q 3513 2838 3513 2113 
z
" transform="scale(0.015625)"/>
       <path id="DejaVuSans-20" transform="scale(0.015625)"/>
       <path id="DejaVuSans-76" d="M 191 3500 
L 800 3500 
L 1894 563 
L 2988 3500 
L 3597 3500 
L 2284 0 
L 1503 0 
L 191 3500 
z
" transform="scale(0.015625)"/>
       <path id="DejaVuSans-61" d="M 2194 1759 
Q 1497 1759 1228 1600 
Q 959 1441 959 1056 
Q 959 750 1161 570 
Q 1363 391 1709 391 
Q 2188 391 2477 730 
Q 2766 1069 2766 1631 
L 2766 1759 
L 2194 1759 
z
M 3341 1997 
L 3341 0 
L 2766 0 
L 2766 531 
Q 2569 213 2275 61 
Q 1981 -91 1556 -91 
Q 1019 -91 701 211 
Q 384 513 384 1019 
Q 384 1609 779 1909 
Q 1175 2209 1959 2209 
L 2766 2209 
L 2766 2266 
Q 2766 2663 2505 2880 
Q 2244 3097 1772 3097 
Q 1472 3097 1187 3025 
Q 903 2953 641 2809 
L 641 3341 
Q 956 3463 1253 3523 
Q 1550 3584 1831 3584 
Q 2591 3584 2966 3190 
Q 3341 2797 3341 1997 
z
" transform="scale(0.015625)"/>
       <path id="DejaVuSans-63" d="M 3122 3366 
L 3122 2828 
Q 2878 2963 2633 3030 
Q 2388 3097 2138 3097 
Q 1578 3097 1268 2742 
Q 959 2388 959 1747 
Q 959 1106 1268 751 
Q 1578 397 2138 397 
Q 2388 397 2633 464 
Q 2878 531 3122 666 
L 3122 134 
Q 2881 22 2623 -34 
Q 2366 -91 2075 -91 
Q 1284 -91 818 406 
Q 353 903 353 1747 
Q 353 2603 823 3093 
Q 1294 3584 2113 3584 
Q 2378 3584 2631 3529 
Q 2884 3475 3122 3366 
z
" transform="scale(0.015625)"/>
       <path id="DejaVuSans-66" d="M 2375 4863 
L 2375 4384 
L 1825 4384 
Q 1516 4384 1395 4259 
Q 1275 4134 1275 3809 
L 1275 3500 
L 2222 3500 
L 2222 3053 
L 1275 3053 
L 1275 0 
L 697 0 
L 697 3053 
L 147 3053 
L 147 3500 
L 697 3500 
L 697 3744 
Q 697 4328 969 4595 
Q 1241 4863 1831 4863 
L 2375 4863 
z
" transform="scale(0.015625)"/>
       <path id="DejaVuSans-72" d="M 2631 2963 
Q 2534 3019 2420 3045 
Q 2306 3072 2169 3072 
Q 1681 3072 1420 2755 
Q 1159 2438 1159 1844 
L 1159 0 
L 581 0 
L 581 3500 
L 1159 3500 
L 1159 2956 
Q 1341 3275 1631 3429 
Q 1922 3584 2338 3584 
Q 2397 3584 2469 3576 
Q 2541 3569 2628 3553 
L 2631 2963 
z
" transform="scale(0.015625)"/>
       <path id="DejaVuSans-6d" d="M 3328 2828 
Q 3544 3216 3844 3400 
Q 4144 3584 4550 3584 
Q 5097 3584 5394 3201 
Q 5691 2819 5691 2113 
L 5691 0 
L 5113 0 
L 5113 2094 
Q 5113 2597 4934 2840 
Q 4756 3084 4391 3084 
Q 3944 3084 3684 2787 
Q 3425 2491 3425 1978 
L 3425 0 
L 2847 0 
L 2847 2094 
Q 2847 2600 2669 2842 
Q 2491 3084 2119 3084 
Q 1678 3084 1418 2786 
Q 1159 2488 1159 1978 
L 1159 0 
L 581 0 
L 581 3500 
L 1159 3500 
L 1159 2956 
Q 1356 3278 1631 3431 
Q 1906 3584 2284 3584 
Q 2666 3584 2933 3390 
Q 3200 3197 3328 2828 
z
" transform="scale(0.015625)"/>
       <path id="DejaVuSans-74" d="M 1172 4494 
L 1172 3500 
L 2356 3500 
L 2356 3053 
L 1172 3053 
L 1172 1153 
Q 1172 725 1289 603 
Q 1406 481 1766 481 
L 2356 481 
L 2356 0 
L 1766 0 
Q 1100 0 847 248 
Q 594 497 594 1153 
L 594 3053 
L 172 3053 
L 172 3500 
L 594 3500 
L 594 4494 
L 1172 4494 
z
" transform="scale(0.015625)"/>
       <path id="DejaVuSans-69" d="M 603 3500 
L 1178 3500 
L 1178 0 
L 603 0 
L 603 3500 
z
M 603 4863 
L 1178 4863 
L 1178 4134 
L 603 4134 
L 603 4863 
z
" transform="scale(0.015625)"/>
       <path id="DejaVuSans-28" d="M 1984 4856 
Q 1566 4138 1362 3434 
Q 1159 2731 1159 2009 
Q 1159 1288 1364 580 
Q 1569 -128 1984 -844 
L 1484 -844 
Q 1016 -109 783 600 
Q 550 1309 550 2009 
Q 550 2706 781 3412 
Q 1013 4119 1484 4856 
L 1984 4856 
z
" transform="scale(0.015625)"/>
       <path id="DejaVuSans-56" d="M 1831 0 
L 50 4666 
L 709 4666 
L 2188 738 
L 3669 4666 
L 4325 4666 
L 2547 0 
L 1831 0 
z
" transform="scale(0.015625)"/>
       <path id="DejaVuSans-29" d="M 513 4856 
L 1013 4856 
Q 1481 4119 1714 3412 
Q 1947 2706 1947 2009 
Q 1947 1309 1714 600 
Q 1481 -109 1013 -844 
L 513 -844 
Q 928 -128 1133 580 
Q 1338 1288 1338 2009 
Q 1338 2731 1133 3434 
Q 928 4138 513 4856 
z
" transform="scale(0.015625)"/>
      </defs>
      <use xlink:href="#DejaVuSans-6f"/>
      <use xlink:href="#DejaVuSans-78" x="58.056641"/>
      <use xlink:href="#DejaVuSans-79" x="117.236328"/>
      <use xlink:href="#DejaVuSans-67" x="176.416016"/>
      <use xlink:href="#DejaVuSans-65" x="239.892578"/>
      <use xlink:href="#DejaVuSans-6e" x="301.416016"/>
      <use xlink:href="#DejaVuSans-20" x="364.794922"/>
      <use xlink:href="#DejaVuSans-76" x="396.582031"/>
      <use xlink:href="#DejaVuSans-61" x="455.761719"/>
      <use xlink:href="#DejaVuSans-63" x="517.041016"/>
      <use xlink:href="#DejaVuSans-61" x="572.021484"/>
      <use xlink:href="#DejaVuSans-6e" x="633.300781"/>
      <use xlink:href="#DejaVuSans-63" x="696.679688"/>
      <use xlink:href="#DejaVuSans-79" x="751.660156"/>
      <use xlink:href="#DejaVuSans-20" x="810.839844"/>
      <use xlink:href="#DejaVuSans-66" x="842.626953"/>
      <use xlink:href="#DejaVuSans-6f" x="877.832031"/>
      <use xlink:href="#DejaVuSans-72" x="939.013672"/>
      <use xlink:href="#DejaVuSans-6d" x="978.376953"/>
      <use xlink:href="#DejaVuSans-61" x="1075.789062"/>
      <use xlink:href="#DejaVuSans-74" x="1137.068359"/>
      <use xlink:href="#DejaVuSans-69" x="1176.277344"/>
      <use xlink:href="#DejaVuSans-6f" x="1204.060547"/>
      <use xlink:href="#DejaVuSans-6e" x="1265.242188"/>
      <use xlink:href="#DejaVuSans-20" x="1328.621094"/>
      <use xlink:href="#DejaVuSans-65" x="1360.408203"/>
      <use xlink:href="#DejaVuSans-6e" x="1421.931641"/>
      <use xlink:href="#DejaVuSans-65" x="1485.310547"/>
      <use xlink:href="#DejaVuSans-72" x="1546.833984"/>
      <use xlink:href="#DejaVuSans-67" x="1586.197266"/>
      <use xlink:href="#DejaVuSans-79" x="1649.673828"/>
      <use xlink:href="#DejaVuSans-20" x="1708.853516"/>
      <use xlink:href="#DejaVuSans-28" x="1740.640625"/>
      <use xlink:href="#DejaVuSans-65" x="1779.654297"/>
      <use xlink:href="#DejaVuSans-56" x="1841.177734"/>
      <use xlink:href="#DejaVuSans-29" x="1909.585938"/>
     </g>
    </g>
   </g>
   <g id="matplotlib.axis_2">
    <g id="ytick_1">
     <g id="line2d_8">
      <defs>
       <path id="m0b133322a6" d="M 0 0 
L -3.5 0 
" style="stroke: #000000; stroke-width: 0.8"/>
      </defs>
      <g>
       <use xlink:href="#m0b133322a6" x="50.87" y="241.84" style="stroke: #000000; stroke-width: 0.8"/>
      </g>
     </g>
     <g id="text_9">
      <!-- 0 -->
      <g transform="translate(37.5075 245.639219) scale(0.1 -0.1)">
       <defs>
        <path id="DejaVuSans-30" d="M 2034 4250 
Q 1547 4250 1301 3770 
Q 1056 3291 1056 2328 
Q 1056 1369 1301 889 
Q 1547 409 2034 409 
Q 2525 409 2770 889 
Q 3016 1369 3016 2328 
Q 3016 3291 2770 3770 
Q 2525 4250 2034 4250 
z
M 2034 4750 
Q 2819 4750 3233 4129 
Q 3647 3509 3647 2328 
Q 3647 1150 3233 529 
Q 2819 -91 2034 -91 
Q 1250 -91 836 529 
Q 422 1150 422 2328 
Q 422 3509 836 4129 
Q 1250 4750 2034 4750 
z
" transform="scale(0.015625)"/>
       </defs>
       <use xlink:href="#DejaVuSans-30"/>
      </g>
     </g>
    </g>
    <g id="ytick_2">
     <g id="line2d_9">
      <g>
       <use xlink:href="#m0b133322a6" x="50.87" y="212.924208" style="stroke: #000000; stroke-width: 0.8"/>
      </g>
     </g>
     <g id="text_10">
      <!-- 25 -->
      <g transform="translate(31.145 216.723426) scale(0.1 -0.1)">
       <use xlink:href="#DejaVuSans-32"/>
       <use xlink:href="#DejaVuSans-35" x="63.623047"/>
      </g>
     </g>
    </g>
    <g id="ytick_3">
     <g id="line2d_10">
      <g>
       <use xlink:href="#m0b133322a6" x="50.87" y="184.008415" style="stroke: #000000; stroke-width: 0.8"/>
      </g>
     </g>
     <g id="text_11">
      <!-- 50 -->
      <g transform="translate(31.145 187.807634) scale(0.1 -0.1)">
       <use xlink:href="#DejaVuSans-35"/>
       <use xlink:href="#DejaVuSans-30" x="63.623047"/>
      </g>
     </g>
    </g>
    <g id="ytick_4">
     <g id="line2d_11">
      <g>
       <use xlink:href="#m0b133322a6" x="50.87" y="155.092623" style="stroke: #000000; stroke-width: 0.8"/>
      </g>
     </g>
     <g id="text_12">
      <!-- 75 -->
      <g transform="translate(31.145 158.891842) scale(0.1 -0.1)">
       <use xlink:href="#DejaVuSans-37"/>
       <use xlink:href="#DejaVuSans-35" x="63.623047"/>
      </g>
     </g>
    </g>
    <g id="ytick_5">
     <g id="line2d_12">
      <g>
       <use xlink:href="#m0b133322a6" x="50.87" y="126.176831" style="stroke: #000000; stroke-width: 0.8"/>
      </g>
     </g>
     <g id="text_13">
      <!-- 100 -->
      <g transform="translate(24.7825 129.97605) scale(0.1 -0.1)">
       <defs>
        <path id="DejaVuSans-31" d="M 794 531 
L 1825 531 
L 1825 4091 
L 703 3866 
L 703 4441 
L 1819 4666 
L 2450 4666 
L 2450 531 
L 3481 531 
L 3481 0 
L 794 0 
L 794 531 
z
" transform="scale(0.015625)"/>
       </defs>
       <use xlink:href="#DejaVuSans-31"/>
       <use xlink:href="#DejaVuSans-30" x="63.623047"/>
       <use xlink:href="#DejaVuSans-30" x="127.246094"/>
      </g>
     </g>
    </g>
    <g id="ytick_6">
     <g id="line2d_13">
      <g>
       <use xlink:href="#m0b133322a6" x="50.87" y="97.261038" style="stroke: #000000; stroke-width: 0.8"/>
      </g>
     </g>
     <g id="text_14">
      <!-- 125 -->
      <g transform="translate(24.7825 101.060257) scale(0.1 -0.1)">
       <use xlink:href="#DejaVuSans-31"/>
       <use xlink:href="#DejaVuSans-32" x="63.623047"/>
       <use xlink:href="#DejaVuSans-35" x="127.246094"/>
      </g>
     </g>
    </g>
    <g id="ytick_7">
     <g id="line2d_14">
      <g>
       <use xlink:href="#m0b133322a6" x="50.87" y="68.345246" style="stroke: #000000; stroke-width: 0.8"/>
      </g>
     </g>
     <g id="text_15">
      <!-- 150 -->
      <g transform="translate(24.7825 72.144465) scale(0.1 -0.1)">
       <use xlink:href="#DejaVuSans-31"/>
       <use xlink:href="#DejaVuSans-35" x="63.623047"/>
       <use xlink:href="#DejaVuSans-30" x="127.246094"/>
      </g>
     </g>
    </g>
    <g id="ytick_8">
     <g id="line2d_15">
      <g>
       <use xlink:href="#m0b133322a6" x="50.87" y="39.429454" style="stroke: #000000; stroke-width: 0.8"/>
      </g>
     </g>
     <g id="text_16">
      <!-- 175 -->
      <g transform="translate(24.7825 43.228673) scale(0.1 -0.1)">
       <use xlink:href="#DejaVuSans-31"/>
       <use xlink:href="#DejaVuSans-37" x="63.623047"/>
       <use xlink:href="#DejaVuSans-35" x="127.246094"/>
      </g>
     </g>
    </g>
    <g id="text_17">
     <!-- sample count -->
     <g transform="translate(18.702813 168.234219) rotate(-90) scale(0.1 -0.1)">
      <defs>
       <path id="DejaVuSans-73" d="M 2834 3397 
L 2834 2853 
Q 2591 2978 2328 3040 
Q 2066 3103 1784 3103 
Q 1356 3103 1142 2972 
Q 928 2841 928 2578 
Q 928 2378 1081 2264 
Q 1234 2150 1697 2047 
L 1894 2003 
Q 2506 1872 2764 1633 
Q 3022 1394 3022 966 
Q 3022 478 2636 193 
Q 2250 -91 1575 -91 
Q 1294 -91 989 -36 
Q 684 19 347 128 
L 347 722 
Q 666 556 975 473 
Q 1284 391 1588 391 
Q 1994 391 2212 530 
Q 2431 669 2431 922 
Q 2431 1156 2273 1281 
Q 2116 1406 1581 1522 
L 1381 1569 
Q 847 1681 609 1914 
Q 372 2147 372 2553 
Q 372 3047 722 3315 
Q 1072 3584 1716 3584 
Q 2034 3584 2315 3537 
Q 2597 3491 2834 3397 
z
" transform="scale(0.015625)"/>
       <path id="DejaVuSans-70" d="M 1159 525 
L 1159 -1331 
L 581 -1331 
L 581 3500 
L 1159 3500 
L 1159 2969 
Q 1341 3281 1617 3432 
Q 1894 3584 2278 3584 
Q 2916 3584 3314 3078 
Q 3713 2572 3713 1747 
Q 3713 922 3314 415 
Q 2916 -91 2278 -91 
Q 1894 -91 1617 61 
Q 1341 213 1159 525 
z
M 3116 1747 
Q 3116 2381 2855 2742 
Q 2594 3103 2138 3103 
Q 1681 3103 1420 2742 
Q 1159 2381 1159 1747 
Q 1159 1113 1420 752 
Q 1681 391 2138 391 
Q 2594 391 2855 752 
Q 3116 1113 3116 1747 
z
" transform="scale(0.015625)"/>
       <path id="DejaVuSans-6c" d="M 603 4863 
L 1178 4863 
L 1178 0 
L 603 0 
L 603 4863 
z
" transform="scale(0.015625)"/>
       <path id="DejaVuSans-75" d="M 544 1381 
L 544 3500 
L 1119 3500 
L 1119 1403 
Q 1119 906 1312 657 
Q 1506 409 1894 409 
Q 2359 409 2629 706 
Q 2900 1003 2900 1516 
L 2900 3500 
L 3475 3500 
L 3475 0 
L 2900 0 
L 2900 538 
Q 2691 219 2414 64 
Q 2138 -91 1772 -91 
Q 1169 -91 856 284 
Q 544 659 544 1381 
z
M 1991 3584 
L 1991 3584 
z
" transform="scale(0.015625)"/>
      </defs>
      <use xlink:href="#DejaVuSans-73"/>
      <use xlink:href="#DejaVuSans-61" x="52.099609"/>
      <use xlink:href="#DejaVuSans-6d" x="113.378906"/>
      <use xlink:href="#DejaVuSans-70" x="210.791016"/>
      <use xlink:href="#DejaVuSans-6c" x="274.267578"/>
      <use xlink:href="#DejaVuSans-65" x="302.050781"/>
      <use xlink:href="#DejaVuSans-20" x="363.574219"/>
      <use xlink:href="#DejaVuSans-63" x="395.361328"/>
      <use xlink:href="#DejaVuSans-6f" x="450.341797"/>
      <use xlink:href="#DejaVuSans-75" x="511.523438"/>
      <use xlink:href="#DejaVuSans-6e" x="574.902344"/>
      <use xlink:href="#DejaVuSans-74" x="638.28125"/>
     </g>
    </g>
   </g>
   <g id="line2d_16">
    <path d="M 67.739545 238.451696 
L 72.825841 237.115911 
L 76.216704 236.044145 
L 79.607567 234.799063 
L 82.998431 233.349005 
L 86.389294 231.658976 
L 89.780158 229.69573 
L 93.171021 227.433541 
L 96.561884 224.859012 
L 99.952748 221.973548 
L 103.343611 218.79314 
L 106.734475 215.346309 
L 111.82077 209.764195 
L 118.602497 201.836892 
L 125.384223 193.901209 
L 128.775087 190.15932 
L 132.16595 186.6859 
L 135.556814 183.53645 
L 138.947677 180.71459 
L 144.033972 176.931244 
L 149.120267 173.18073 
L 152.511131 170.295613 
L 154.206562 168.636325 
L 155.901994 166.78996 
L 157.597426 164.728793 
L 159.292857 162.430154 
L 160.988289 159.877659 
L 162.683721 157.062214 
L 164.379153 153.982734 
L 167.770016 147.069376 
L 171.160879 139.294992 
L 176.247175 126.640491 
L 181.33347 113.892719 
L 184.724333 105.962664 
L 188.115196 98.843068 
L 189.810628 95.653085 
L 191.50606 92.730971 
L 193.201492 90.084041 
L 194.896923 87.713128 
L 196.592355 85.613291 
L 198.287787 83.774711 
L 199.983218 82.183736 
L 201.67865 80.823983 
L 203.374082 79.677439 
L 205.069513 78.725476 
L 206.764945 77.949739 
L 208.460377 77.332852 
L 210.155809 76.858919 
L 211.85124 76.513803 
L 215.242104 76.162603 
L 218.632967 76.200455 
L 222.023831 76.567878 
L 225.414694 77.215446 
L 228.805557 78.098399 
L 232.196421 79.177214 
L 237.282716 81.100966 
L 242.369011 83.353264 
L 247.455306 85.912887 
L 261.01876 93.103004 
L 264.409623 94.446857 
L 266.105055 94.964286 
L 267.800487 95.358821 
L 269.495918 95.616946 
L 271.19135 95.726472 
L 272.886782 95.676651 
L 274.582213 95.458292 
L 276.277645 95.063903 
L 277.973077 94.487902 
L 279.668508 93.726896 
L 281.36394 92.780046 
L 283.059372 91.649485 
L 284.754804 90.34076 
L 286.450235 88.863246 
L 289.841099 85.46025 
L 293.231962 81.600131 
L 301.709121 71.503938 
L 305.099984 67.990132 
L 306.795416 66.467783 
L 308.490847 65.132466 
L 310.186279 64.001497 
L 311.881711 63.087557 
L 313.577143 62.398966 
L 315.272574 61.940204 
L 316.968006 61.712623 
L 318.663438 61.71528 
L 320.358869 61.945796 
L 322.054301 62.401182 
L 323.749733 63.078555 
L 325.445164 63.975703 
L 327.140596 65.091471 
L 328.836028 66.425974 
L 330.53146 67.98063 
L 332.226891 69.758062 
L 333.922323 71.761892 
L 335.617755 73.996464 
L 337.313186 76.466539 
L 339.008618 79.176968 
L 340.70405 82.132372 
L 342.399481 85.336814 
L 344.094913 88.793479 
L 347.485777 96.469691 
L 350.87664 105.154965 
L 354.267503 114.803952 
L 357.658367 125.317882 
L 361.04923 136.533301 
L 367.830957 160.081833 
L 372.917252 177.484144 
L 376.308116 188.338615 
L 379.698979 198.257401 
L 383.089842 207.031349 
L 384.785274 210.948668 
L 386.480706 214.543528 
L 388.176138 217.816313 
L 389.871569 220.77286 
L 391.567001 223.423861 
L 393.262433 225.784141 
L 394.957864 227.871835 
L 396.653296 229.707527 
L 398.348728 231.313372 
L 400.044159 232.712267 
L 401.739591 233.927076 
L 403.435023 234.979971 
L 405.130455 235.891878 
L 405.130455 235.891878 
" clip-path="url(#p574a2dbaf6)" style="fill: none; stroke: #1f77b4; stroke-width: 1.5; stroke-linecap: square"/>
   </g>
   <g id="patch_22">
    <path d="M 50.87 241.84 
L 50.87 26.88 
" style="fill: none; stroke: #000000; stroke-width: 0.8; stroke-linejoin: miter; stroke-linecap: square"/>
   </g>
   <g id="patch_23">
    <path d="M 422 241.84 
L 422 26.88 
" style="fill: none; stroke: #000000; stroke-width: 0.8; stroke-linejoin: miter; stroke-linecap: square"/>
   </g>
   <g id="patch_24">
    <path d="M 50.87 241.84 
L 422 241.84 
" style="fill: none; stroke: #000000; stroke-width: 0.8; stroke-linejoin: miter; stroke-linecap: square"/>
   </g>
   <g id="patch_25">
    <path d="M 50.87 26.88 
L 422 26.88 
" style="fill: none; stroke: #000000; stroke-width: 0.8; stroke-linejoin: miter; stroke-linecap: square"/>
   </g>
   <g id="text_18">
    <!-- dataset1 -->
    <g transform="translate(209.932812 20.88) scale(0.12 -0.12)">
     <defs>
      <path id="DejaVuSans-64" d="M 2906 2969 
L 2906 4863 
L 3481 4863 
L 3481 0 
L 2906 0 
L 2906 525 
Q 2725 213 2448 61 
Q 2172 -91 1784 -91 
Q 1150 -91 751 415 
Q 353 922 353 1747 
Q 353 2572 751 3078 
Q 1150 3584 1784 3584 
Q 2172 3584 2448 3432 
Q 2725 3281 2906 2969 
z
M 947 1747 
Q 947 1113 1208 752 
Q 1469 391 1925 391 
Q 2381 391 2643 752 
Q 2906 1113 2906 1747 
Q 2906 2381 2643 2742 
Q 2381 3103 1925 3103 
Q 1469 3103 1208 2742 
Q 947 2381 947 1747 
z
" transform="scale(0.015625)"/>
     </defs>
     <use xlink:href="#DejaVuSans-64"/>
     <use xlink:href="#DejaVuSans-61" x="63.476562"/>
     <use xlink:href="#DejaVuSans-74" x="124.755859"/>
     <use xlink:href="#DejaVuSans-61" x="163.964844"/>
     <use xlink:href="#DejaVuSans-73" x="225.244141"/>
     <use xlink:href="#DejaVuSans-65" x="277.34375"/>
     <use xlink:href="#DejaVuSans-74" x="338.867188"/>
     <use xlink:href="#DejaVuSans-31" x="378.076172"/>
    </g>
   </g>
  </g>
  <g id="axes_2">
   <g id="patch_26">
    <path d="M 482.07 241.84 
L 853.2 241.84 
L 853.2 26.88 
L 482.07 26.88 
z
" style="fill: #ffffff"/>
   </g>
   <g id="patch_27">
    <path d="M 498.939545 241.84 
L 524.892692 241.84 
L 524.892692 225.352176 
L 498.939545 225.352176 
z
" clip-path="url(#pcb4bdef358)" style="fill: #1f77b4; fill-opacity: 0.5; stroke: #000000; stroke-linejoin: miter"/>
   </g>
   <g id="patch_28">
    <path d="M 524.892692 241.84 
L 550.845839 241.84 
L 550.845839 219.856235 
L 524.892692 219.856235 
z
" clip-path="url(#pcb4bdef358)" style="fill: #1f77b4; fill-opacity: 0.5; stroke: #000000; stroke-linejoin: miter"/>
   </g>
   <g id="patch_29">
    <path d="M 550.845839 241.84 
L 576.798986 241.84 
L 576.798986 215.734279 
L 550.845839 215.734279 
z
" clip-path="url(#pcb4bdef358)" style="fill: #1f77b4; fill-opacity: 0.5; stroke: #000000; stroke-linejoin: miter"/>
   </g>
   <g id="patch_30">
    <path d="M 576.798986 241.84 
L 602.752133 241.84 
L 602.752133 193.750515 
L 576.798986 193.750515 
z
" clip-path="url(#pcb4bdef358)" style="fill: #1f77b4; fill-opacity: 0.5; stroke: #000000; stroke-linejoin: miter"/>
   </g>
   <g id="patch_31">
    <path d="M 602.752133 241.84 
L 628.70528 241.84 
L 628.70528 155.278926 
L 602.752133 155.278926 
z
" clip-path="url(#pcb4bdef358)" style="fill: #1f77b4; fill-opacity: 0.5; stroke: #000000; stroke-linejoin: miter"/>
   </g>
   <g id="patch_32">
    <path d="M 628.70528 241.84 
L 654.658427 241.84 
L 654.658427 37.11619 
L 628.70528 37.11619 
z
" clip-path="url(#pcb4bdef358)" style="fill: #1f77b4; fill-opacity: 0.5; stroke: #000000; stroke-linejoin: miter"/>
   </g>
   <g id="patch_33">
    <path d="M 654.658427 241.84 
L 680.611573 241.84 
L 680.611573 74.213794 
L 654.658427 74.213794 
z
" clip-path="url(#pcb4bdef358)" style="fill: #1f77b4; fill-opacity: 0.5; stroke: #000000; stroke-linejoin: miter"/>
   </g>
   <g id="patch_34">
    <path d="M 680.611573 241.84 
L 706.56472 241.84 
L 706.56472 175.888706 
L 680.611573 175.888706 
z
" clip-path="url(#pcb4bdef358)" style="fill: #1f77b4; fill-opacity: 0.5; stroke: #000000; stroke-linejoin: miter"/>
   </g>
   <g id="patch_35">
    <path d="M 706.56472 241.84 
L 732.517867 241.84 
L 732.517867 189.628559 
L 706.56472 189.628559 
z
" clip-path="url(#pcb4bdef358)" style="fill: #1f77b4; fill-opacity: 0.5; stroke: #000000; stroke-linejoin: miter"/>
   </g>
   <g id="patch_36">
    <path d="M 732.517867 241.84 
L 758.471014 241.84 
L 758.471014 144.287044 
L 732.517867 144.287044 
z
" clip-path="url(#pcb4bdef358)" style="fill: #1f77b4; fill-opacity: 0.5; stroke: #000000; stroke-linejoin: miter"/>
   </g>
   <g id="patch_37">
    <path d="M 758.471014 241.84 
L 784.424161 241.84 
L 784.424161 112.685382 
L 758.471014 112.685382 
z
" clip-path="url(#pcb4bdef358)" style="fill: #1f77b4; fill-opacity: 0.5; stroke: #000000; stroke-linejoin: miter"/>
   </g>
   <g id="patch_38">
    <path d="M 784.424161 241.84 
L 810.377308 241.84 
L 810.377308 122.303279 
L 784.424161 122.303279 
z
" clip-path="url(#pcb4bdef358)" style="fill: #1f77b4; fill-opacity: 0.5; stroke: #000000; stroke-linejoin: miter"/>
   </g>
   <g id="patch_39">
    <path d="M 810.377308 241.84 
L 836.330455 241.84 
L 836.330455 185.506603 
L 810.377308 185.506603 
z
" clip-path="url(#pcb4bdef358)" style="fill: #1f77b4; fill-opacity: 0.5; stroke: #000000; stroke-linejoin: miter"/>
   </g>
   <g id="matplotlib.axis_3">
    <g id="xtick_8">
     <g id="line2d_17">
      <g>
       <use xlink:href="#mdd441fb08d" x="484.792597" y="241.84" style="stroke: #000000; stroke-width: 0.8"/>
      </g>
     </g>
     <g id="text_19">
      <!-- 0 -->
      <g transform="translate(481.611347 256.438437) scale(0.1 -0.1)">
       <use xlink:href="#DejaVuSans-30"/>
      </g>
     </g>
    </g>
    <g id="xtick_9">
     <g id="line2d_18">
      <g>
       <use xlink:href="#mdd441fb08d" x="535.048187" y="241.84" style="stroke: #000000; stroke-width: 0.8"/>
      </g>
     </g>
     <g id="text_20">
      <!-- 1 -->
      <g transform="translate(531.866937 256.438437) scale(0.1 -0.1)">
       <use xlink:href="#DejaVuSans-31"/>
      </g>
     </g>
    </g>
    <g id="xtick_10">
     <g id="line2d_19">
      <g>
       <use xlink:href="#mdd441fb08d" x="585.303778" y="241.84" style="stroke: #000000; stroke-width: 0.8"/>
      </g>
     </g>
     <g id="text_21">
      <!-- 2 -->
      <g transform="translate(582.122528 256.438437) scale(0.1 -0.1)">
       <use xlink:href="#DejaVuSans-32"/>
      </g>
     </g>
    </g>
    <g id="xtick_11">
     <g id="line2d_20">
      <g>
       <use xlink:href="#mdd441fb08d" x="635.559369" y="241.84" style="stroke: #000000; stroke-width: 0.8"/>
      </g>
     </g>
     <g id="text_22">
      <!-- 3 -->
      <g transform="translate(632.378119 256.438437) scale(0.1 -0.1)">
       <use xlink:href="#DejaVuSans-33"/>
      </g>
     </g>
    </g>
    <g id="xtick_12">
     <g id="line2d_21">
      <g>
       <use xlink:href="#mdd441fb08d" x="685.81496" y="241.84" style="stroke: #000000; stroke-width: 0.8"/>
      </g>
     </g>
     <g id="text_23">
      <!-- 4 -->
      <g transform="translate(682.63371 256.438437) scale(0.1 -0.1)">
       <use xlink:href="#DejaVuSans-34"/>
      </g>
     </g>
    </g>
    <g id="xtick_13">
     <g id="line2d_22">
      <g>
       <use xlink:href="#mdd441fb08d" x="736.070551" y="241.84" style="stroke: #000000; stroke-width: 0.8"/>
      </g>
     </g>
     <g id="text_24">
      <!-- 5 -->
      <g transform="translate(732.889301 256.438437) scale(0.1 -0.1)">
       <use xlink:href="#DejaVuSans-35"/>
      </g>
     </g>
    </g>
    <g id="xtick_14">
     <g id="line2d_23">
      <g>
       <use xlink:href="#mdd441fb08d" x="786.326142" y="241.84" style="stroke: #000000; stroke-width: 0.8"/>
      </g>
     </g>
     <g id="text_25">
      <!-- 6 -->
      <g transform="translate(783.144892 256.438437) scale(0.1 -0.1)">
       <use xlink:href="#DejaVuSans-36"/>
      </g>
     </g>
    </g>
    <g id="xtick_15">
     <g id="line2d_24">
      <g>
       <use xlink:href="#mdd441fb08d" x="836.581732" y="241.84" style="stroke: #000000; stroke-width: 0.8"/>
      </g>
     </g>
     <g id="text_26">
      <!-- 7 -->
      <g transform="translate(833.400482 256.438437) scale(0.1 -0.1)">
       <use xlink:href="#DejaVuSans-37"/>
      </g>
     </g>
    </g>
    <g id="text_27">
     <!-- oxygen vacancy formation energy (eV) -->
     <g transform="translate(570.202187 270.116562) scale(0.1 -0.1)">
      <use xlink:href="#DejaVuSans-6f"/>
      <use xlink:href="#DejaVuSans-78" x="58.056641"/>
      <use xlink:href="#DejaVuSans-79" x="117.236328"/>
      <use xlink:href="#DejaVuSans-67" x="176.416016"/>
      <use xlink:href="#DejaVuSans-65" x="239.892578"/>
      <use xlink:href="#DejaVuSans-6e" x="301.416016"/>
      <use xlink:href="#DejaVuSans-20" x="364.794922"/>
      <use xlink:href="#DejaVuSans-76" x="396.582031"/>
      <use xlink:href="#DejaVuSans-61" x="455.761719"/>
      <use xlink:href="#DejaVuSans-63" x="517.041016"/>
      <use xlink:href="#DejaVuSans-61" x="572.021484"/>
      <use xlink:href="#DejaVuSans-6e" x="633.300781"/>
      <use xlink:href="#DejaVuSans-63" x="696.679688"/>
      <use xlink:href="#DejaVuSans-79" x="751.660156"/>
      <use xlink:href="#DejaVuSans-20" x="810.839844"/>
      <use xlink:href="#DejaVuSans-66" x="842.626953"/>
      <use xlink:href="#DejaVuSans-6f" x="877.832031"/>
      <use xlink:href="#DejaVuSans-72" x="939.013672"/>
      <use xlink:href="#DejaVuSans-6d" x="978.376953"/>
      <use xlink:href="#DejaVuSans-61" x="1075.789062"/>
      <use xlink:href="#DejaVuSans-74" x="1137.068359"/>
      <use xlink:href="#DejaVuSans-69" x="1176.277344"/>
      <use xlink:href="#DejaVuSans-6f" x="1204.060547"/>
      <use xlink:href="#DejaVuSans-6e" x="1265.242188"/>
      <use xlink:href="#DejaVuSans-20" x="1328.621094"/>
      <use xlink:href="#DejaVuSans-65" x="1360.408203"/>
      <use xlink:href="#DejaVuSans-6e" x="1421.931641"/>
      <use xlink:href="#DejaVuSans-65" x="1485.310547"/>
      <use xlink:href="#DejaVuSans-72" x="1546.833984"/>
      <use xlink:href="#DejaVuSans-67" x="1586.197266"/>
      <use xlink:href="#DejaVuSans-79" x="1649.673828"/>
      <use xlink:href="#DejaVuSans-20" x="1708.853516"/>
      <use xlink:href="#DejaVuSans-28" x="1740.640625"/>
      <use xlink:href="#DejaVuSans-65" x="1779.654297"/>
      <use xlink:href="#DejaVuSans-56" x="1841.177734"/>
      <use xlink:href="#DejaVuSans-29" x="1909.585938"/>
     </g>
    </g>
   </g>
   <g id="matplotlib.axis_4">
    <g id="ytick_9">
     <g id="line2d_25">
      <g>
       <use xlink:href="#m0b133322a6" x="482.07" y="241.84" style="stroke: #000000; stroke-width: 0.8"/>
      </g>
     </g>
     <g id="text_28">
      <!-- 0 -->
      <g transform="translate(468.7075 245.639219) scale(0.1 -0.1)">
       <use xlink:href="#DejaVuSans-30"/>
      </g>
     </g>
    </g>
    <g id="ytick_10">
     <g id="line2d_26">
      <g>
       <use xlink:href="#m0b133322a6" x="482.07" y="214.360294" style="stroke: #000000; stroke-width: 0.8"/>
      </g>
     </g>
     <g id="text_29">
      <!-- 20 -->
      <g transform="translate(462.345 218.159513) scale(0.1 -0.1)">
       <use xlink:href="#DejaVuSans-32"/>
       <use xlink:href="#DejaVuSans-30" x="63.623047"/>
      </g>
     </g>
    </g>
    <g id="ytick_11">
     <g id="line2d_27">
      <g>
       <use xlink:href="#m0b133322a6" x="482.07" y="186.880588" style="stroke: #000000; stroke-width: 0.8"/>
      </g>
     </g>
     <g id="text_30">
      <!-- 40 -->
      <g transform="translate(462.345 190.679807) scale(0.1 -0.1)">
       <use xlink:href="#DejaVuSans-34"/>
       <use xlink:href="#DejaVuSans-30" x="63.623047"/>
      </g>
     </g>
    </g>
    <g id="ytick_12">
     <g id="line2d_28">
      <g>
       <use xlink:href="#m0b133322a6" x="482.07" y="159.400882" style="stroke: #000000; stroke-width: 0.8"/>
      </g>
     </g>
     <g id="text_31">
      <!-- 60 -->
      <g transform="translate(462.345 163.200101) scale(0.1 -0.1)">
       <use xlink:href="#DejaVuSans-36"/>
       <use xlink:href="#DejaVuSans-30" x="63.623047"/>
      </g>
     </g>
    </g>
    <g id="ytick_13">
     <g id="line2d_29">
      <g>
       <use xlink:href="#m0b133322a6" x="482.07" y="131.921176" style="stroke: #000000; stroke-width: 0.8"/>
      </g>
     </g>
     <g id="text_32">
      <!-- 80 -->
      <g transform="translate(462.345 135.720395) scale(0.1 -0.1)">
       <use xlink:href="#DejaVuSans-38"/>
       <use xlink:href="#DejaVuSans-30" x="63.623047"/>
      </g>
     </g>
    </g>
    <g id="ytick_14">
     <g id="line2d_30">
      <g>
       <use xlink:href="#m0b133322a6" x="482.07" y="104.44147" style="stroke: #000000; stroke-width: 0.8"/>
      </g>
     </g>
     <g id="text_33">
      <!-- 100 -->
      <g transform="translate(455.9825 108.240689) scale(0.1 -0.1)">
       <use xlink:href="#DejaVuSans-31"/>
       <use xlink:href="#DejaVuSans-30" x="63.623047"/>
       <use xlink:href="#DejaVuSans-30" x="127.246094"/>
      </g>
     </g>
    </g>
    <g id="ytick_15">
     <g id="line2d_31">
      <g>
       <use xlink:href="#m0b133322a6" x="482.07" y="76.961764" style="stroke: #000000; stroke-width: 0.8"/>
      </g>
     </g>
     <g id="text_34">
      <!-- 120 -->
      <g transform="translate(455.9825 80.760983) scale(0.1 -0.1)">
       <use xlink:href="#DejaVuSans-31"/>
       <use xlink:href="#DejaVuSans-32" x="63.623047"/>
       <use xlink:href="#DejaVuSans-30" x="127.246094"/>
      </g>
     </g>
    </g>
    <g id="ytick_16">
     <g id="line2d_32">
      <g>
       <use xlink:href="#m0b133322a6" x="482.07" y="49.482058" style="stroke: #000000; stroke-width: 0.8"/>
      </g>
     </g>
     <g id="text_35">
      <!-- 140 -->
      <g transform="translate(455.9825 53.281277) scale(0.1 -0.1)">
       <use xlink:href="#DejaVuSans-31"/>
       <use xlink:href="#DejaVuSans-34" x="63.623047"/>
       <use xlink:href="#DejaVuSans-30" x="127.246094"/>
      </g>
     </g>
    </g>
    <g id="text_36">
     <!-- sample count -->
     <g transform="translate(449.902812 168.234219) rotate(-90) scale(0.1 -0.1)">
      <use xlink:href="#DejaVuSans-73"/>
      <use xlink:href="#DejaVuSans-61" x="52.099609"/>
      <use xlink:href="#DejaVuSans-6d" x="113.378906"/>
      <use xlink:href="#DejaVuSans-70" x="210.791016"/>
      <use xlink:href="#DejaVuSans-6c" x="274.267578"/>
      <use xlink:href="#DejaVuSans-65" x="302.050781"/>
      <use xlink:href="#DejaVuSans-20" x="363.574219"/>
      <use xlink:href="#DejaVuSans-63" x="395.361328"/>
      <use xlink:href="#DejaVuSans-6f" x="450.341797"/>
      <use xlink:href="#DejaVuSans-75" x="511.523438"/>
      <use xlink:href="#DejaVuSans-6e" x="574.902344"/>
      <use xlink:href="#DejaVuSans-74" x="638.28125"/>
     </g>
    </g>
   </g>
   <g id="line2d_33">
    <path d="M 498.939545 232.616882 
L 507.416704 230.331907 
L 532.84818 223.718259 
L 539.629906 221.629709 
L 546.411633 219.274939 
L 551.497928 217.260271 
L 556.584223 214.950774 
L 559.975087 213.205554 
L 563.36595 211.266081 
L 566.756814 209.107715 
L 570.147677 206.707219 
L 573.53854 204.042821 
L 576.929404 201.093871 
L 580.320267 197.840092 
L 583.711131 194.260403 
L 587.101994 190.331346 
L 590.492857 186.02529 
L 593.883721 181.308805 
L 597.274584 176.141932 
L 600.665448 170.47923 
L 604.056311 164.273515 
L 607.447175 157.482931 
L 610.838038 150.081394 
L 614.228901 142.071678 
L 617.619765 133.499538 
L 622.70606 119.826646 
L 631.183218 96.598455 
L 634.574082 88.023555 
L 636.269513 84.067476 
L 637.964945 80.394095 
L 639.660377 77.048448 
L 641.355809 74.073316 
L 643.05124 71.508225 
L 644.746672 69.388488 
L 646.442104 67.744333 
L 648.137535 66.600132 
L 649.832967 65.973765 
L 651.528399 65.876135 
L 653.223831 66.310852 
L 654.919262 67.274102 
L 656.614694 68.754687 
L 658.310126 70.734257 
L 660.005557 73.187712 
L 661.700989 76.083752 
L 663.396421 79.385583 
L 665.091852 83.051727 
L 668.482716 91.293092 
L 671.873579 100.417909 
L 683.741601 133.697297 
L 687.132465 142.239668 
L 690.523328 149.933623 
L 693.914191 156.658582 
L 695.609623 159.636029 
L 697.305055 162.351376 
L 699.000487 164.803663 
L 700.695918 166.993887 
L 702.39135 168.924587 
L 704.086782 170.599467 
L 705.782213 172.02305 
L 707.477645 173.200402 
L 709.173077 174.136909 
L 710.868508 174.838109 
L 712.56394 175.309602 
L 714.259372 175.557003 
L 715.954804 175.585961 
L 717.650235 175.402214 
L 719.345667 175.011686 
L 721.041099 174.420607 
L 722.73653 173.635654 
L 724.431962 172.664095 
L 726.127394 171.513927 
L 727.822825 170.194006 
L 729.518257 168.714153 
L 732.909121 165.3192 
L 736.299984 161.429125 
L 739.690847 157.160904 
L 744.777143 150.339458 
L 751.558869 141.207813 
L 754.949733 136.940634 
L 758.340596 133.039494 
L 761.73146 129.607903 
L 765.122323 126.728859 
L 766.817755 125.516915 
L 768.513186 124.465235 
L 770.208618 123.578981 
L 771.90405 122.862495 
L 773.599481 122.319453 
L 775.294913 121.953023 
L 776.990345 121.766005 
L 778.685777 121.760958 
L 780.381208 121.94029 
L 782.07664 122.306322 
L 783.772072 122.8613 
L 785.467503 123.607377 
L 787.162935 124.546546 
L 788.858367 125.680533 
L 790.553799 127.010665 
L 792.24923 128.537697 
L 793.944662 130.261635 
L 795.640094 132.181537 
L 797.335525 134.295324 
L 800.726389 139.089494 
L 804.117252 144.598525 
L 807.508116 150.749993 
L 810.898979 157.443926 
L 815.985274 168.222257 
L 827.853296 194.128345 
L 831.244159 201.027366 
L 834.635023 207.460942 
L 836.330455 210.473126 
L 836.330455 210.473126 
" clip-path="url(#pcb4bdef358)" style="fill: none; stroke: #1f77b4; stroke-width: 1.5; stroke-linecap: square"/>
   </g>
   <g id="patch_40">
    <path d="M 482.07 241.84 
L 482.07 26.88 
" style="fill: none; stroke: #000000; stroke-width: 0.8; stroke-linejoin: miter; stroke-linecap: square"/>
   </g>
   <g id="patch_41">
    <path d="M 853.2 241.84 
L 853.2 26.88 
" style="fill: none; stroke: #000000; stroke-width: 0.8; stroke-linejoin: miter; stroke-linecap: square"/>
   </g>
   <g id="patch_42">
    <path d="M 482.07 241.84 
L 853.2 241.84 
" style="fill: none; stroke: #000000; stroke-width: 0.8; stroke-linejoin: miter; stroke-linecap: square"/>
   </g>
   <g id="patch_43">
    <path d="M 482.07 26.88 
L 853.2 26.88 
" style="fill: none; stroke: #000000; stroke-width: 0.8; stroke-linejoin: miter; stroke-linecap: square"/>
   </g>
   <g id="text_37">
    <!-- dataset2 -->
    <g transform="translate(641.132812 20.88) scale(0.12 -0.12)">
     <use xlink:href="#DejaVuSans-64"/>
     <use xlink:href="#DejaVuSans-61" x="63.476562"/>
     <use xlink:href="#DejaVuSans-74" x="124.755859"/>
     <use xlink:href="#DejaVuSans-61" x="163.964844"/>
     <use xlink:href="#DejaVuSans-73" x="225.244141"/>
     <use xlink:href="#DejaVuSans-65" x="277.34375"/>
     <use xlink:href="#DejaVuSans-74" x="338.867188"/>
     <use xlink:href="#DejaVuSans-32" x="378.076172"/>
    </g>
   </g>
  </g>
  <g id="axes_3">
   <g id="patch_44">
    <path d="M 50.87 534.04 
L 422 534.04 
L 422 319.08 
L 50.87 319.08 
z
" style="fill: #ffffff"/>
   </g>
   <g id="patch_45">
    <path d="M 67.739545 534.04 
L 83.075496 534.04 
L 83.075496 525.328349 
L 67.739545 525.328349 
z
" clip-path="url(#p51cf569ece)" style="fill: #1f77b4; fill-opacity: 0.5; stroke: #000000; stroke-linejoin: miter"/>
   </g>
   <g id="patch_46">
    <path d="M 83.075496 534.04 
L 98.411446 534.04 
L 98.411446 534.04 
L 83.075496 534.04 
z
" clip-path="url(#p51cf569ece)" style="fill: #1f77b4; fill-opacity: 0.5; stroke: #000000; stroke-linejoin: miter"/>
   </g>
   <g id="patch_47">
    <path d="M 98.411446 534.04 
L 113.747397 534.04 
L 113.747397 534.04 
L 98.411446 534.04 
z
" clip-path="url(#p51cf569ece)" style="fill: #1f77b4; fill-opacity: 0.5; stroke: #000000; stroke-linejoin: miter"/>
   </g>
   <g id="patch_48">
    <path d="M 113.747397 534.04 
L 129.083347 534.04 
L 129.083347 534.04 
L 113.747397 534.04 
z
" clip-path="url(#p51cf569ece)" style="fill: #1f77b4; fill-opacity: 0.5; stroke: #000000; stroke-linejoin: miter"/>
   </g>
   <g id="patch_49">
    <path d="M 129.083347 534.04 
L 144.419298 534.04 
L 144.419298 534.04 
L 129.083347 534.04 
z
" clip-path="url(#p51cf569ece)" style="fill: #1f77b4; fill-opacity: 0.5; stroke: #000000; stroke-linejoin: miter"/>
   </g>
   <g id="patch_50">
    <path d="M 144.419298 534.04 
L 159.755248 534.04 
L 159.755248 534.04 
L 144.419298 534.04 
z
" clip-path="url(#p51cf569ece)" style="fill: #1f77b4; fill-opacity: 0.5; stroke: #000000; stroke-linejoin: miter"/>
   </g>
   <g id="patch_51">
    <path d="M 159.755248 534.04 
L 175.091198 534.04 
L 175.091198 534.04 
L 159.755248 534.04 
z
" clip-path="url(#p51cf569ece)" style="fill: #1f77b4; fill-opacity: 0.5; stroke: #000000; stroke-linejoin: miter"/>
   </g>
   <g id="patch_52">
    <path d="M 175.091198 534.04 
L 190.427149 534.04 
L 190.427149 525.328349 
L 175.091198 525.328349 
z
" clip-path="url(#p51cf569ece)" style="fill: #1f77b4; fill-opacity: 0.5; stroke: #000000; stroke-linejoin: miter"/>
   </g>
   <g id="patch_53">
    <path d="M 190.427149 534.04 
L 205.763099 534.04 
L 205.763099 520.972523 
L 190.427149 520.972523 
z
" clip-path="url(#p51cf569ece)" style="fill: #1f77b4; fill-opacity: 0.5; stroke: #000000; stroke-linejoin: miter"/>
   </g>
   <g id="patch_54">
    <path d="M 205.763099 534.04 
L 221.09905 534.04 
L 221.09905 507.905046 
L 205.763099 507.905046 
z
" clip-path="url(#p51cf569ece)" style="fill: #1f77b4; fill-opacity: 0.5; stroke: #000000; stroke-linejoin: miter"/>
   </g>
   <g id="patch_55">
    <path d="M 221.09905 534.04 
L 236.435 534.04 
L 236.435 507.905046 
L 221.09905 507.905046 
z
" clip-path="url(#p51cf569ece)" style="fill: #1f77b4; fill-opacity: 0.5; stroke: #000000; stroke-linejoin: miter"/>
   </g>
   <g id="patch_56">
    <path d="M 236.435 534.04 
L 251.77095 534.04 
L 251.77095 512.260871 
L 236.435 512.260871 
z
" clip-path="url(#p51cf569ece)" style="fill: #1f77b4; fill-opacity: 0.5; stroke: #000000; stroke-linejoin: miter"/>
   </g>
   <g id="patch_57">
    <path d="M 251.77095 534.04 
L 267.106901 534.04 
L 267.106901 490.481743 
L 251.77095 490.481743 
z
" clip-path="url(#p51cf569ece)" style="fill: #1f77b4; fill-opacity: 0.5; stroke: #000000; stroke-linejoin: miter"/>
   </g>
   <g id="patch_58">
    <path d="M 267.106901 534.04 
L 282.442851 534.04 
L 282.442851 490.481743 
L 267.106901 490.481743 
z
" clip-path="url(#p51cf569ece)" style="fill: #1f77b4; fill-opacity: 0.5; stroke: #000000; stroke-linejoin: miter"/>
   </g>
   <g id="patch_59">
    <path d="M 282.442851 534.04 
L 297.778802 534.04 
L 297.778802 468.702614 
L 282.442851 468.702614 
z
" clip-path="url(#p51cf569ece)" style="fill: #1f77b4; fill-opacity: 0.5; stroke: #000000; stroke-linejoin: miter"/>
   </g>
   <g id="patch_60">
    <path d="M 297.778802 534.04 
L 313.114752 534.04 
L 313.114752 464.346788 
L 297.778802 464.346788 
z
" clip-path="url(#p51cf569ece)" style="fill: #1f77b4; fill-opacity: 0.5; stroke: #000000; stroke-linejoin: miter"/>
   </g>
   <g id="patch_61">
    <path d="M 313.114752 534.04 
L 328.450702 534.04 
L 328.450702 394.653576 
L 313.114752 394.653576 
z
" clip-path="url(#p51cf569ece)" style="fill: #1f77b4; fill-opacity: 0.5; stroke: #000000; stroke-linejoin: miter"/>
   </g>
   <g id="patch_62">
    <path d="M 328.450702 534.04 
L 343.786653 534.04 
L 343.786653 329.31619 
L 328.450702 329.31619 
z
" clip-path="url(#p51cf569ece)" style="fill: #1f77b4; fill-opacity: 0.5; stroke: #000000; stroke-linejoin: miter"/>
   </g>
   <g id="patch_63">
    <path d="M 343.786653 534.04 
L 359.122603 534.04 
L 359.122603 355.451145 
L 343.786653 355.451145 
z
" clip-path="url(#p51cf569ece)" style="fill: #1f77b4; fill-opacity: 0.5; stroke: #000000; stroke-linejoin: miter"/>
   </g>
   <g id="patch_64">
    <path d="M 359.122603 534.04 
L 374.458554 534.04 
L 374.458554 346.739493 
L 359.122603 346.739493 
z
" clip-path="url(#p51cf569ece)" style="fill: #1f77b4; fill-opacity: 0.5; stroke: #000000; stroke-linejoin: miter"/>
   </g>
   <g id="patch_65">
    <path d="M 374.458554 534.04 
L 389.794504 534.04 
L 389.794504 390.297751 
L 374.458554 390.297751 
z
" clip-path="url(#p51cf569ece)" style="fill: #1f77b4; fill-opacity: 0.5; stroke: #000000; stroke-linejoin: miter"/>
   </g>
   <g id="patch_66">
    <path d="M 389.794504 534.04 
L 405.130455 534.04 
L 405.130455 499.193394 
L 389.794504 499.193394 
z
" clip-path="url(#p51cf569ece)" style="fill: #1f77b4; fill-opacity: 0.5; stroke: #000000; stroke-linejoin: miter"/>
   </g>
   <g id="matplotlib.axis_5">
    <g id="xtick_16">
     <g id="line2d_34">
      <g>
       <use xlink:href="#mdd441fb08d" x="55.546379" y="534.04" style="stroke: #000000; stroke-width: 0.8"/>
      </g>
     </g>
     <g id="text_38">
      <!-- 1 -->
      <g transform="translate(52.365129 548.638438) scale(0.1 -0.1)">
       <use xlink:href="#DejaVuSans-31"/>
      </g>
     </g>
    </g>
    <g id="xtick_17">
     <g id="line2d_35">
      <g>
       <use xlink:href="#mdd441fb08d" x="113.858986" y="534.04" style="stroke: #000000; stroke-width: 0.8"/>
      </g>
     </g>
     <g id="text_39">
      <!-- 2 -->
      <g transform="translate(110.677736 548.638438) scale(0.1 -0.1)">
       <use xlink:href="#DejaVuSans-32"/>
      </g>
     </g>
    </g>
    <g id="xtick_18">
     <g id="line2d_36">
      <g>
       <use xlink:href="#mdd441fb08d" x="172.171592" y="534.04" style="stroke: #000000; stroke-width: 0.8"/>
      </g>
     </g>
     <g id="text_40">
      <!-- 3 -->
      <g transform="translate(168.990342 548.638438) scale(0.1 -0.1)">
       <use xlink:href="#DejaVuSans-33"/>
      </g>
     </g>
    </g>
    <g id="xtick_19">
     <g id="line2d_37">
      <g>
       <use xlink:href="#mdd441fb08d" x="230.484199" y="534.04" style="stroke: #000000; stroke-width: 0.8"/>
      </g>
     </g>
     <g id="text_41">
      <!-- 4 -->
      <g transform="translate(227.302949 548.638438) scale(0.1 -0.1)">
       <use xlink:href="#DejaVuSans-34"/>
      </g>
     </g>
    </g>
    <g id="xtick_20">
     <g id="line2d_38">
      <g>
       <use xlink:href="#mdd441fb08d" x="288.796805" y="534.04" style="stroke: #000000; stroke-width: 0.8"/>
      </g>
     </g>
     <g id="text_42">
      <!-- 5 -->
      <g transform="translate(285.615555 548.638438) scale(0.1 -0.1)">
       <use xlink:href="#DejaVuSans-35"/>
      </g>
     </g>
    </g>
    <g id="xtick_21">
     <g id="line2d_39">
      <g>
       <use xlink:href="#mdd441fb08d" x="347.109411" y="534.04" style="stroke: #000000; stroke-width: 0.8"/>
      </g>
     </g>
     <g id="text_43">
      <!-- 6 -->
      <g transform="translate(343.928161 548.638438) scale(0.1 -0.1)">
       <use xlink:href="#DejaVuSans-36"/>
      </g>
     </g>
    </g>
    <g id="xtick_22">
     <g id="line2d_40">
      <g>
       <use xlink:href="#mdd441fb08d" x="405.422018" y="534.04" style="stroke: #000000; stroke-width: 0.8"/>
      </g>
     </g>
     <g id="text_44">
      <!-- 7 -->
      <g transform="translate(402.240768 548.638438) scale(0.1 -0.1)">
       <use xlink:href="#DejaVuSans-37"/>
      </g>
     </g>
    </g>
    <g id="text_45">
     <!-- oxygen vacancy formation energy (eV) -->
     <g transform="translate(139.002187 562.316562) scale(0.1 -0.1)">
      <use xlink:href="#DejaVuSans-6f"/>
      <use xlink:href="#DejaVuSans-78" x="58.056641"/>
      <use xlink:href="#DejaVuSans-79" x="117.236328"/>
      <use xlink:href="#DejaVuSans-67" x="176.416016"/>
      <use xlink:href="#DejaVuSans-65" x="239.892578"/>
      <use xlink:href="#DejaVuSans-6e" x="301.416016"/>
      <use xlink:href="#DejaVuSans-20" x="364.794922"/>
      <use xlink:href="#DejaVuSans-76" x="396.582031"/>
      <use xlink:href="#DejaVuSans-61" x="455.761719"/>
      <use xlink:href="#DejaVuSans-63" x="517.041016"/>
      <use xlink:href="#DejaVuSans-61" x="572.021484"/>
      <use xlink:href="#DejaVuSans-6e" x="633.300781"/>
      <use xlink:href="#DejaVuSans-63" x="696.679688"/>
      <use xlink:href="#DejaVuSans-79" x="751.660156"/>
      <use xlink:href="#DejaVuSans-20" x="810.839844"/>
      <use xlink:href="#DejaVuSans-66" x="842.626953"/>
      <use xlink:href="#DejaVuSans-6f" x="877.832031"/>
      <use xlink:href="#DejaVuSans-72" x="939.013672"/>
      <use xlink:href="#DejaVuSans-6d" x="978.376953"/>
      <use xlink:href="#DejaVuSans-61" x="1075.789062"/>
      <use xlink:href="#DejaVuSans-74" x="1137.068359"/>
      <use xlink:href="#DejaVuSans-69" x="1176.277344"/>
      <use xlink:href="#DejaVuSans-6f" x="1204.060547"/>
      <use xlink:href="#DejaVuSans-6e" x="1265.242188"/>
      <use xlink:href="#DejaVuSans-20" x="1328.621094"/>
      <use xlink:href="#DejaVuSans-65" x="1360.408203"/>
      <use xlink:href="#DejaVuSans-6e" x="1421.931641"/>
      <use xlink:href="#DejaVuSans-65" x="1485.310547"/>
      <use xlink:href="#DejaVuSans-72" x="1546.833984"/>
      <use xlink:href="#DejaVuSans-67" x="1586.197266"/>
      <use xlink:href="#DejaVuSans-79" x="1649.673828"/>
      <use xlink:href="#DejaVuSans-20" x="1708.853516"/>
      <use xlink:href="#DejaVuSans-28" x="1740.640625"/>
      <use xlink:href="#DejaVuSans-65" x="1779.654297"/>
      <use xlink:href="#DejaVuSans-56" x="1841.177734"/>
      <use xlink:href="#DejaVuSans-29" x="1909.585938"/>
     </g>
    </g>
   </g>
   <g id="matplotlib.axis_6">
    <g id="ytick_17">
     <g id="line2d_41">
      <g>
       <use xlink:href="#m0b133322a6" x="50.87" y="534.04" style="stroke: #000000; stroke-width: 0.8"/>
      </g>
     </g>
     <g id="text_46">
      <!-- 0 -->
      <g transform="translate(37.5075 537.839219) scale(0.1 -0.1)">
       <use xlink:href="#DejaVuSans-30"/>
      </g>
     </g>
    </g>
    <g id="ytick_18">
     <g id="line2d_42">
      <g>
       <use xlink:href="#m0b133322a6" x="50.87" y="490.481743" style="stroke: #000000; stroke-width: 0.8"/>
      </g>
     </g>
     <g id="text_47">
      <!-- 10 -->
      <g transform="translate(31.145 494.280961) scale(0.1 -0.1)">
       <use xlink:href="#DejaVuSans-31"/>
       <use xlink:href="#DejaVuSans-30" x="63.623047"/>
      </g>
     </g>
    </g>
    <g id="ytick_19">
     <g id="line2d_43">
      <g>
       <use xlink:href="#m0b133322a6" x="50.87" y="446.923485" style="stroke: #000000; stroke-width: 0.8"/>
      </g>
     </g>
     <g id="text_48">
      <!-- 20 -->
      <g transform="translate(31.145 450.722704) scale(0.1 -0.1)">
       <use xlink:href="#DejaVuSans-32"/>
       <use xlink:href="#DejaVuSans-30" x="63.623047"/>
      </g>
     </g>
    </g>
    <g id="ytick_20">
     <g id="line2d_44">
      <g>
       <use xlink:href="#m0b133322a6" x="50.87" y="403.365228" style="stroke: #000000; stroke-width: 0.8"/>
      </g>
     </g>
     <g id="text_49">
      <!-- 30 -->
      <g transform="translate(31.145 407.164447) scale(0.1 -0.1)">
       <use xlink:href="#DejaVuSans-33"/>
       <use xlink:href="#DejaVuSans-30" x="63.623047"/>
      </g>
     </g>
    </g>
    <g id="ytick_21">
     <g id="line2d_45">
      <g>
       <use xlink:href="#m0b133322a6" x="50.87" y="359.806971" style="stroke: #000000; stroke-width: 0.8"/>
      </g>
     </g>
     <g id="text_50">
      <!-- 40 -->
      <g transform="translate(31.145 363.606189) scale(0.1 -0.1)">
       <use xlink:href="#DejaVuSans-34"/>
       <use xlink:href="#DejaVuSans-30" x="63.623047"/>
      </g>
     </g>
    </g>
    <g id="text_51">
     <!-- sample count -->
     <g transform="translate(25.065313 460.434219) rotate(-90) scale(0.1 -0.1)">
      <use xlink:href="#DejaVuSans-73"/>
      <use xlink:href="#DejaVuSans-61" x="52.099609"/>
      <use xlink:href="#DejaVuSans-6d" x="113.378906"/>
      <use xlink:href="#DejaVuSans-70" x="210.791016"/>
      <use xlink:href="#DejaVuSans-6c" x="274.267578"/>
      <use xlink:href="#DejaVuSans-65" x="302.050781"/>
      <use xlink:href="#DejaVuSans-20" x="363.574219"/>
      <use xlink:href="#DejaVuSans-63" x="395.361328"/>
      <use xlink:href="#DejaVuSans-6f" x="450.341797"/>
      <use xlink:href="#DejaVuSans-75" x="511.523438"/>
      <use xlink:href="#DejaVuSans-6e" x="574.902344"/>
      <use xlink:href="#DejaVuSans-74" x="638.28125"/>
     </g>
    </g>
   </g>
   <g id="line2d_46">
    <path d="M 67.739545 531.004437 
L 72.825841 530.925358 
L 77.912136 531.114993 
L 82.998431 531.525934 
L 103.343611 533.475648 
L 110.125338 533.789801 
L 118.602497 533.963908 
L 132.16595 533.980098 
L 142.33854 533.794124 
L 149.120267 533.478799 
L 155.901994 532.913791 
L 160.988289 532.278859 
L 166.074584 531.431824 
L 171.160879 530.345019 
L 176.247175 528.986316 
L 181.33347 527.324085 
L 186.419765 525.34673 
L 191.50606 523.089827 
L 208.460377 515.121593 
L 213.546672 513.127324 
L 218.632967 511.399679 
L 233.891852 506.525471 
L 237.282716 505.181853 
L 242.369011 502.867183 
L 247.455306 500.260808 
L 257.627896 494.891725 
L 264.409623 491.639941 
L 271.19135 488.401933 
L 274.582213 486.523032 
L 277.973077 484.272686 
L 279.668508 482.957513 
L 281.36394 481.488853 
L 283.059372 479.84748 
L 284.754804 478.015399 
L 286.450235 475.976263 
L 288.145667 473.715811 
L 289.841099 471.222303 
L 291.53653 468.486958 
L 293.231962 465.504387 
L 294.927394 462.273001 
L 298.318257 455.078537 
L 301.709121 446.978705 
L 305.099984 438.123056 
L 310.186279 423.91585 
L 316.968006 404.74282 
L 320.358869 395.717932 
L 323.749733 387.39949 
L 327.140596 379.959382 
L 328.836028 376.602715 
L 330.53146 373.49791 
L 332.226891 370.647656 
L 333.922323 368.051892 
L 335.617755 365.708672 
L 337.313186 363.615103 
L 339.008618 361.768299 
L 340.70405 360.166293 
L 342.399481 358.808829 
L 344.094913 357.698008 
L 345.790345 356.838709 
L 347.485777 356.238783 
L 349.181208 355.908987 
L 350.87664 355.862657 
L 352.572072 356.115161 
L 354.267503 356.683146 
L 355.962935 357.583651 
L 357.658367 358.833134 
L 359.353799 360.446483 
L 361.04923 362.436082 
L 362.744662 364.810971 
L 364.440094 367.576158 
L 366.135525 370.732114 
L 367.830957 374.274443 
L 369.526389 378.193758 
L 371.22182 382.475712 
L 374.612684 392.046604 
L 378.003547 402.783015 
L 381.394411 414.423249 
L 386.480706 432.90771 
L 393.262433 457.734333 
L 396.653296 469.507021 
L 400.044159 480.48672 
L 403.435023 490.466785 
L 405.130455 495.03563 
L 405.130455 495.03563 
" clip-path="url(#p51cf569ece)" style="fill: none; stroke: #1f77b4; stroke-width: 1.5; stroke-linecap: square"/>
   </g>
   <g id="patch_67">
    <path d="M 50.87 534.04 
L 50.87 319.08 
" style="fill: none; stroke: #000000; stroke-width: 0.8; stroke-linejoin: miter; stroke-linecap: square"/>
   </g>
   <g id="patch_68">
    <path d="M 422 534.04 
L 422 319.08 
" style="fill: none; stroke: #000000; stroke-width: 0.8; stroke-linejoin: miter; stroke-linecap: square"/>
   </g>
   <g id="patch_69">
    <path d="M 50.87 534.04 
L 422 534.04 
" style="fill: none; stroke: #000000; stroke-width: 0.8; stroke-linejoin: miter; stroke-linecap: square"/>
   </g>
   <g id="patch_70">
    <path d="M 50.87 319.08 
L 422 319.08 
" style="fill: none; stroke: #000000; stroke-width: 0.8; stroke-linejoin: miter; stroke-linecap: square"/>
   </g>
   <g id="text_52">
    <!-- dataset2 (without Mn/Fe/Co/Ni) -->
    <g transform="translate(143.010312 313.08) scale(0.12 -0.12)">
     <defs>
      <path id="DejaVuSans-77" d="M 269 3500 
L 844 3500 
L 1563 769 
L 2278 3500 
L 2956 3500 
L 3675 769 
L 4391 3500 
L 4966 3500 
L 4050 0 
L 3372 0 
L 2619 2869 
L 1863 0 
L 1184 0 
L 269 3500 
z
" transform="scale(0.015625)"/>
      <path id="DejaVuSans-68" d="M 3513 2113 
L 3513 0 
L 2938 0 
L 2938 2094 
Q 2938 2591 2744 2837 
Q 2550 3084 2163 3084 
Q 1697 3084 1428 2787 
Q 1159 2491 1159 1978 
L 1159 0 
L 581 0 
L 581 4863 
L 1159 4863 
L 1159 2956 
Q 1366 3272 1645 3428 
Q 1925 3584 2291 3584 
Q 2894 3584 3203 3211 
Q 3513 2838 3513 2113 
z
" transform="scale(0.015625)"/>
      <path id="DejaVuSans-4d" d="M 628 4666 
L 1569 4666 
L 2759 1491 
L 3956 4666 
L 4897 4666 
L 4897 0 
L 4281 0 
L 4281 4097 
L 3078 897 
L 2444 897 
L 1241 4097 
L 1241 0 
L 628 0 
L 628 4666 
z
" transform="scale(0.015625)"/>
      <path id="DejaVuSans-2f" d="M 1625 4666 
L 2156 4666 
L 531 -594 
L 0 -594 
L 1625 4666 
z
" transform="scale(0.015625)"/>
      <path id="DejaVuSans-46" d="M 628 4666 
L 3309 4666 
L 3309 4134 
L 1259 4134 
L 1259 2759 
L 3109 2759 
L 3109 2228 
L 1259 2228 
L 1259 0 
L 628 0 
L 628 4666 
z
" transform="scale(0.015625)"/>
      <path id="DejaVuSans-43" d="M 4122 4306 
L 4122 3641 
Q 3803 3938 3442 4084 
Q 3081 4231 2675 4231 
Q 1875 4231 1450 3742 
Q 1025 3253 1025 2328 
Q 1025 1406 1450 917 
Q 1875 428 2675 428 
Q 3081 428 3442 575 
Q 3803 722 4122 1019 
L 4122 359 
Q 3791 134 3420 21 
Q 3050 -91 2638 -91 
Q 1578 -91 968 557 
Q 359 1206 359 2328 
Q 359 3453 968 4101 
Q 1578 4750 2638 4750 
Q 3056 4750 3426 4639 
Q 3797 4528 4122 4306 
z
" transform="scale(0.015625)"/>
      <path id="DejaVuSans-4e" d="M 628 4666 
L 1478 4666 
L 3547 763 
L 3547 4666 
L 4159 4666 
L 4159 0 
L 3309 0 
L 1241 3903 
L 1241 0 
L 628 0 
L 628 4666 
z
" transform="scale(0.015625)"/>
     </defs>
     <use xlink:href="#DejaVuSans-64"/>
     <use xlink:href="#DejaVuSans-61" x="63.476562"/>
     <use xlink:href="#DejaVuSans-74" x="124.755859"/>
     <use xlink:href="#DejaVuSans-61" x="163.964844"/>
     <use xlink:href="#DejaVuSans-73" x="225.244141"/>
     <use xlink:href="#DejaVuSans-65" x="277.34375"/>
     <use xlink:href="#DejaVuSans-74" x="338.867188"/>
     <use xlink:href="#DejaVuSans-32" x="378.076172"/>
     <use xlink:href="#DejaVuSans-20" x="441.699219"/>
     <use xlink:href="#DejaVuSans-28" x="473.486328"/>
     <use xlink:href="#DejaVuSans-77" x="512.5"/>
     <use xlink:href="#DejaVuSans-69" x="594.287109"/>
     <use xlink:href="#DejaVuSans-74" x="622.070312"/>
     <use xlink:href="#DejaVuSans-68" x="661.279297"/>
     <use xlink:href="#DejaVuSans-6f" x="724.658203"/>
     <use xlink:href="#DejaVuSans-75" x="785.839844"/>
     <use xlink:href="#DejaVuSans-74" x="849.21875"/>
     <use xlink:href="#DejaVuSans-20" x="888.427734"/>
     <use xlink:href="#DejaVuSans-4d" x="920.214844"/>
     <use xlink:href="#DejaVuSans-6e" x="1006.494141"/>
     <use xlink:href="#DejaVuSans-2f" x="1069.873047"/>
     <use xlink:href="#DejaVuSans-46" x="1103.564453"/>
     <use xlink:href="#DejaVuSans-65" x="1155.583984"/>
     <use xlink:href="#DejaVuSans-2f" x="1217.107422"/>
     <use xlink:href="#DejaVuSans-43" x="1250.798828"/>
     <use xlink:href="#DejaVuSans-6f" x="1320.623047"/>
     <use xlink:href="#DejaVuSans-2f" x="1381.804688"/>
     <use xlink:href="#DejaVuSans-4e" x="1415.496094"/>
     <use xlink:href="#DejaVuSans-69" x="1490.300781"/>
     <use xlink:href="#DejaVuSans-29" x="1518.083984"/>
    </g>
   </g>
  </g>
  <g id="axes_4">
   <g id="patch_71">
    <path d="M 482.07 534.04 
L 853.2 534.04 
L 853.2 319.08 
L 482.07 319.08 
z
" style="fill: #ffffff"/>
   </g>
   <g id="patch_72">
    <path d="M 498.939545 534.04 
L 511.916119 534.04 
L 511.916119 515.428745 
L 498.939545 515.428745 
z
" clip-path="url(#p767c46cd26)" style="fill: #1f77b4; fill-opacity: 0.5; stroke: #000000; stroke-linejoin: miter"/>
   </g>
   <g id="patch_73">
    <path d="M 511.916119 534.04 
L 524.892692 534.04 
L 524.892692 520.746246 
L 511.916119 520.746246 
z
" clip-path="url(#p767c46cd26)" style="fill: #1f77b4; fill-opacity: 0.5; stroke: #000000; stroke-linejoin: miter"/>
   </g>
   <g id="patch_74">
    <path d="M 524.892692 534.04 
L 537.869266 534.04 
L 537.869266 526.063748 
L 524.892692 526.063748 
z
" clip-path="url(#p767c46cd26)" style="fill: #1f77b4; fill-opacity: 0.5; stroke: #000000; stroke-linejoin: miter"/>
   </g>
   <g id="patch_75">
    <path d="M 537.869266 534.04 
L 550.845839 534.04 
L 550.845839 512.769994 
L 537.869266 512.769994 
z
" clip-path="url(#p767c46cd26)" style="fill: #1f77b4; fill-opacity: 0.5; stroke: #000000; stroke-linejoin: miter"/>
   </g>
   <g id="patch_76">
    <path d="M 550.845839 534.04 
L 563.822413 534.04 
L 563.822413 520.746246 
L 550.845839 520.746246 
z
" clip-path="url(#p767c46cd26)" style="fill: #1f77b4; fill-opacity: 0.5; stroke: #000000; stroke-linejoin: miter"/>
   </g>
   <g id="patch_77">
    <path d="M 563.822413 534.04 
L 576.798986 534.04 
L 576.798986 520.746246 
L 563.822413 520.746246 
z
" clip-path="url(#p767c46cd26)" style="fill: #1f77b4; fill-opacity: 0.5; stroke: #000000; stroke-linejoin: miter"/>
   </g>
   <g id="patch_78">
    <path d="M 576.798986 534.04 
L 589.775559 534.04 
L 589.775559 491.499988 
L 576.798986 491.499988 
z
" clip-path="url(#p767c46cd26)" style="fill: #1f77b4; fill-opacity: 0.5; stroke: #000000; stroke-linejoin: miter"/>
   </g>
   <g id="patch_79">
    <path d="M 589.775559 534.04 
L 602.752133 534.04 
L 602.752133 507.452492 
L 589.775559 507.452492 
z
" clip-path="url(#p767c46cd26)" style="fill: #1f77b4; fill-opacity: 0.5; stroke: #000000; stroke-linejoin: miter"/>
   </g>
   <g id="patch_80">
    <path d="M 602.752133 534.04 
L 615.728706 534.04 
L 615.728706 478.206234 
L 602.752133 478.206234 
z
" clip-path="url(#p767c46cd26)" style="fill: #1f77b4; fill-opacity: 0.5; stroke: #000000; stroke-linejoin: miter"/>
   </g>
   <g id="patch_81">
    <path d="M 615.728706 534.04 
L 628.70528 534.04 
L 628.70528 459.594978 
L 615.728706 459.594978 
z
" clip-path="url(#p767c46cd26)" style="fill: #1f77b4; fill-opacity: 0.5; stroke: #000000; stroke-linejoin: miter"/>
   </g>
   <g id="patch_82">
    <path d="M 628.70528 534.04 
L 641.681853 534.04 
L 641.681853 467.571231 
L 628.70528 467.571231 
z
" clip-path="url(#p767c46cd26)" style="fill: #1f77b4; fill-opacity: 0.5; stroke: #000000; stroke-linejoin: miter"/>
   </g>
   <g id="patch_83">
    <path d="M 641.681853 534.04 
L 654.658427 534.04 
L 654.658427 419.713717 
L 641.681853 419.713717 
z
" clip-path="url(#p767c46cd26)" style="fill: #1f77b4; fill-opacity: 0.5; stroke: #000000; stroke-linejoin: miter"/>
   </g>
   <g id="patch_84">
    <path d="M 654.658427 534.04 
L 667.635 534.04 
L 667.635 339.951194 
L 654.658427 339.951194 
z
" clip-path="url(#p767c46cd26)" style="fill: #1f77b4; fill-opacity: 0.5; stroke: #000000; stroke-linejoin: miter"/>
   </g>
   <g id="patch_85">
    <path d="M 667.635 534.04 
L 680.611573 534.04 
L 680.611573 329.31619 
L 667.635 329.31619 
z
" clip-path="url(#p767c46cd26)" style="fill: #1f77b4; fill-opacity: 0.5; stroke: #000000; stroke-linejoin: miter"/>
   </g>
   <g id="patch_86">
    <path d="M 680.611573 534.04 
L 693.588147 534.04 
L 693.588147 379.832455 
L 680.611573 379.832455 
z
" clip-path="url(#p767c46cd26)" style="fill: #1f77b4; fill-opacity: 0.5; stroke: #000000; stroke-linejoin: miter"/>
   </g>
   <g id="patch_87">
    <path d="M 693.588147 534.04 
L 706.56472 534.04 
L 706.56472 470.229981 
L 693.588147 470.229981 
z
" clip-path="url(#p767c46cd26)" style="fill: #1f77b4; fill-opacity: 0.5; stroke: #000000; stroke-linejoin: miter"/>
   </g>
   <g id="patch_88">
    <path d="M 706.56472 534.04 
L 719.541294 534.04 
L 719.541294 486.182486 
L 706.56472 486.182486 
z
" clip-path="url(#p767c46cd26)" style="fill: #1f77b4; fill-opacity: 0.5; stroke: #000000; stroke-linejoin: miter"/>
   </g>
   <g id="patch_89">
    <path d="M 719.541294 534.04 
L 732.517867 534.04 
L 732.517867 499.47624 
L 719.541294 499.47624 
z
" clip-path="url(#p767c46cd26)" style="fill: #1f77b4; fill-opacity: 0.5; stroke: #000000; stroke-linejoin: miter"/>
   </g>
   <g id="patch_90">
    <path d="M 732.517867 534.04 
L 745.494441 534.04 
L 745.494441 512.769994 
L 732.517867 512.769994 
z
" clip-path="url(#p767c46cd26)" style="fill: #1f77b4; fill-opacity: 0.5; stroke: #000000; stroke-linejoin: miter"/>
   </g>
   <g id="patch_91">
    <path d="M 745.494441 534.04 
L 758.471014 534.04 
L 758.471014 518.087495 
L 745.494441 518.087495 
z
" clip-path="url(#p767c46cd26)" style="fill: #1f77b4; fill-opacity: 0.5; stroke: #000000; stroke-linejoin: miter"/>
   </g>
   <g id="patch_92">
    <path d="M 758.471014 534.04 
L 771.447587 534.04 
L 771.447587 494.158738 
L 758.471014 494.158738 
z
" clip-path="url(#p767c46cd26)" style="fill: #1f77b4; fill-opacity: 0.5; stroke: #000000; stroke-linejoin: miter"/>
   </g>
   <g id="patch_93">
    <path d="M 771.447587 534.04 
L 784.424161 534.04 
L 784.424161 496.817489 
L 771.447587 496.817489 
z
" clip-path="url(#p767c46cd26)" style="fill: #1f77b4; fill-opacity: 0.5; stroke: #000000; stroke-linejoin: miter"/>
   </g>
   <g id="patch_94">
    <path d="M 784.424161 534.04 
L 797.400734 534.04 
L 797.400734 488.841237 
L 784.424161 488.841237 
z
" clip-path="url(#p767c46cd26)" style="fill: #1f77b4; fill-opacity: 0.5; stroke: #000000; stroke-linejoin: miter"/>
   </g>
   <g id="patch_95">
    <path d="M 797.400734 534.04 
L 810.377308 534.04 
L 810.377308 512.769994 
L 797.400734 512.769994 
z
" clip-path="url(#p767c46cd26)" style="fill: #1f77b4; fill-opacity: 0.5; stroke: #000000; stroke-linejoin: miter"/>
   </g>
   <g id="patch_96">
    <path d="M 810.377308 534.04 
L 823.353881 534.04 
L 823.353881 523.404997 
L 810.377308 523.404997 
z
" clip-path="url(#p767c46cd26)" style="fill: #1f77b4; fill-opacity: 0.5; stroke: #000000; stroke-linejoin: miter"/>
   </g>
   <g id="patch_97">
    <path d="M 823.353881 534.04 
L 836.330455 534.04 
L 836.330455 520.746246 
L 823.353881 520.746246 
z
" clip-path="url(#p767c46cd26)" style="fill: #1f77b4; fill-opacity: 0.5; stroke: #000000; stroke-linejoin: miter"/>
   </g>
   <g id="matplotlib.axis_7">
    <g id="xtick_23">
     <g id="line2d_47">
      <g>
       <use xlink:href="#mdd441fb08d" x="483.017676" y="534.04" style="stroke: #000000; stroke-width: 0.8"/>
      </g>
     </g>
     <g id="text_53">
      <!-- 0 -->
      <g transform="translate(479.836426 548.638438) scale(0.1 -0.1)">
       <use xlink:href="#DejaVuSans-30"/>
      </g>
     </g>
    </g>
    <g id="xtick_24">
     <g id="line2d_48">
      <g>
       <use xlink:href="#mdd441fb08d" x="539.57849" y="534.04" style="stroke: #000000; stroke-width: 0.8"/>
      </g>
     </g>
     <g id="text_54">
      <!-- 1 -->
      <g transform="translate(536.39724 548.638438) scale(0.1 -0.1)">
       <use xlink:href="#DejaVuSans-31"/>
      </g>
     </g>
    </g>
    <g id="xtick_25">
     <g id="line2d_49">
      <g>
       <use xlink:href="#mdd441fb08d" x="596.139304" y="534.04" style="stroke: #000000; stroke-width: 0.8"/>
      </g>
     </g>
     <g id="text_55">
      <!-- 2 -->
      <g transform="translate(592.958054 548.638438) scale(0.1 -0.1)">
       <use xlink:href="#DejaVuSans-32"/>
      </g>
     </g>
    </g>
    <g id="xtick_26">
     <g id="line2d_50">
      <g>
       <use xlink:href="#mdd441fb08d" x="652.700117" y="534.04" style="stroke: #000000; stroke-width: 0.8"/>
      </g>
     </g>
     <g id="text_56">
      <!-- 3 -->
      <g transform="translate(649.518867 548.638438) scale(0.1 -0.1)">
       <use xlink:href="#DejaVuSans-33"/>
      </g>
     </g>
    </g>
    <g id="xtick_27">
     <g id="line2d_51">
      <g>
       <use xlink:href="#mdd441fb08d" x="709.260931" y="534.04" style="stroke: #000000; stroke-width: 0.8"/>
      </g>
     </g>
     <g id="text_57">
      <!-- 4 -->
      <g transform="translate(706.079681 548.638438) scale(0.1 -0.1)">
       <use xlink:href="#DejaVuSans-34"/>
      </g>
     </g>
    </g>
    <g id="xtick_28">
     <g id="line2d_52">
      <g>
       <use xlink:href="#mdd441fb08d" x="765.821744" y="534.04" style="stroke: #000000; stroke-width: 0.8"/>
      </g>
     </g>
     <g id="text_58">
      <!-- 5 -->
      <g transform="translate(762.640494 548.638438) scale(0.1 -0.1)">
       <use xlink:href="#DejaVuSans-35"/>
      </g>
     </g>
    </g>
    <g id="xtick_29">
     <g id="line2d_53">
      <g>
       <use xlink:href="#mdd441fb08d" x="822.382558" y="534.04" style="stroke: #000000; stroke-width: 0.8"/>
      </g>
     </g>
     <g id="text_59">
      <!-- 6 -->
      <g transform="translate(819.201308 548.638438) scale(0.1 -0.1)">
       <use xlink:href="#DejaVuSans-36"/>
      </g>
     </g>
    </g>
    <g id="text_60">
     <!-- oxygen vacancy formation energy (eV) -->
     <g transform="translate(570.202187 562.316562) scale(0.1 -0.1)">
      <use xlink:href="#DejaVuSans-6f"/>
      <use xlink:href="#DejaVuSans-78" x="58.056641"/>
      <use xlink:href="#DejaVuSans-79" x="117.236328"/>
      <use xlink:href="#DejaVuSans-67" x="176.416016"/>
      <use xlink:href="#DejaVuSans-65" x="239.892578"/>
      <use xlink:href="#DejaVuSans-6e" x="301.416016"/>
      <use xlink:href="#DejaVuSans-20" x="364.794922"/>
      <use xlink:href="#DejaVuSans-76" x="396.582031"/>
      <use xlink:href="#DejaVuSans-61" x="455.761719"/>
      <use xlink:href="#DejaVuSans-63" x="517.041016"/>
      <use xlink:href="#DejaVuSans-61" x="572.021484"/>
      <use xlink:href="#DejaVuSans-6e" x="633.300781"/>
      <use xlink:href="#DejaVuSans-63" x="696.679688"/>
      <use xlink:href="#DejaVuSans-79" x="751.660156"/>
      <use xlink:href="#DejaVuSans-20" x="810.839844"/>
      <use xlink:href="#DejaVuSans-66" x="842.626953"/>
      <use xlink:href="#DejaVuSans-6f" x="877.832031"/>
      <use xlink:href="#DejaVuSans-72" x="939.013672"/>
      <use xlink:href="#DejaVuSans-6d" x="978.376953"/>
      <use xlink:href="#DejaVuSans-61" x="1075.789062"/>
      <use xlink:href="#DejaVuSans-74" x="1137.068359"/>
      <use xlink:href="#DejaVuSans-69" x="1176.277344"/>
      <use xlink:href="#DejaVuSans-6f" x="1204.060547"/>
      <use xlink:href="#DejaVuSans-6e" x="1265.242188"/>
      <use xlink:href="#DejaVuSans-20" x="1328.621094"/>
      <use xlink:href="#DejaVuSans-65" x="1360.408203"/>
      <use xlink:href="#DejaVuSans-6e" x="1421.931641"/>
      <use xlink:href="#DejaVuSans-65" x="1485.310547"/>
      <use xlink:href="#DejaVuSans-72" x="1546.833984"/>
      <use xlink:href="#DejaVuSans-67" x="1586.197266"/>
      <use xlink:href="#DejaVuSans-79" x="1649.673828"/>
      <use xlink:href="#DejaVuSans-20" x="1708.853516"/>
      <use xlink:href="#DejaVuSans-28" x="1740.640625"/>
      <use xlink:href="#DejaVuSans-65" x="1779.654297"/>
      <use xlink:href="#DejaVuSans-56" x="1841.177734"/>
      <use xlink:href="#DejaVuSans-29" x="1909.585938"/>
     </g>
    </g>
   </g>
   <g id="matplotlib.axis_8">
    <g id="ytick_22">
     <g id="line2d_54">
      <g>
       <use xlink:href="#m0b133322a6" x="482.07" y="534.04" style="stroke: #000000; stroke-width: 0.8"/>
      </g>
     </g>
     <g id="text_61">
      <!-- 0 -->
      <g transform="translate(468.7075 537.839219) scale(0.1 -0.1)">
       <use xlink:href="#DejaVuSans-30"/>
      </g>
     </g>
    </g>
    <g id="ytick_23">
     <g id="line2d_55">
      <g>
       <use xlink:href="#m0b133322a6" x="482.07" y="507.452492" style="stroke: #000000; stroke-width: 0.8"/>
      </g>
     </g>
     <g id="text_62">
      <!-- 10 -->
      <g transform="translate(462.345 511.251711) scale(0.1 -0.1)">
       <use xlink:href="#DejaVuSans-31"/>
       <use xlink:href="#DejaVuSans-30" x="63.623047"/>
      </g>
     </g>
    </g>
    <g id="ytick_24">
     <g id="line2d_56">
      <g>
       <use xlink:href="#m0b133322a6" x="482.07" y="480.864985" style="stroke: #000000; stroke-width: 0.8"/>
      </g>
     </g>
     <g id="text_63">
      <!-- 20 -->
      <g transform="translate(462.345 484.664203) scale(0.1 -0.1)">
       <use xlink:href="#DejaVuSans-32"/>
       <use xlink:href="#DejaVuSans-30" x="63.623047"/>
      </g>
     </g>
    </g>
    <g id="ytick_25">
     <g id="line2d_57">
      <g>
       <use xlink:href="#m0b133322a6" x="482.07" y="454.277477" style="stroke: #000000; stroke-width: 0.8"/>
      </g>
     </g>
     <g id="text_64">
      <!-- 30 -->
      <g transform="translate(462.345 458.076696) scale(0.1 -0.1)">
       <use xlink:href="#DejaVuSans-33"/>
       <use xlink:href="#DejaVuSans-30" x="63.623047"/>
      </g>
     </g>
    </g>
    <g id="ytick_26">
     <g id="line2d_58">
      <g>
       <use xlink:href="#m0b133322a6" x="482.07" y="427.689969" style="stroke: #000000; stroke-width: 0.8"/>
      </g>
     </g>
     <g id="text_65">
      <!-- 40 -->
      <g transform="translate(462.345 431.489188) scale(0.1 -0.1)">
       <use xlink:href="#DejaVuSans-34"/>
       <use xlink:href="#DejaVuSans-30" x="63.623047"/>
      </g>
     </g>
    </g>
    <g id="ytick_27">
     <g id="line2d_59">
      <g>
       <use xlink:href="#m0b133322a6" x="482.07" y="401.102461" style="stroke: #000000; stroke-width: 0.8"/>
      </g>
     </g>
     <g id="text_66">
      <!-- 50 -->
      <g transform="translate(462.345 404.90168) scale(0.1 -0.1)">
       <use xlink:href="#DejaVuSans-35"/>
       <use xlink:href="#DejaVuSans-30" x="63.623047"/>
      </g>
     </g>
    </g>
    <g id="ytick_28">
     <g id="line2d_60">
      <g>
       <use xlink:href="#m0b133322a6" x="482.07" y="374.514954" style="stroke: #000000; stroke-width: 0.8"/>
      </g>
     </g>
     <g id="text_67">
      <!-- 60 -->
      <g transform="translate(462.345 378.314172) scale(0.1 -0.1)">
       <use xlink:href="#DejaVuSans-36"/>
       <use xlink:href="#DejaVuSans-30" x="63.623047"/>
      </g>
     </g>
    </g>
    <g id="ytick_29">
     <g id="line2d_61">
      <g>
       <use xlink:href="#m0b133322a6" x="482.07" y="347.927446" style="stroke: #000000; stroke-width: 0.8"/>
      </g>
     </g>
     <g id="text_68">
      <!-- 70 -->
      <g transform="translate(462.345 351.726665) scale(0.1 -0.1)">
       <use xlink:href="#DejaVuSans-37"/>
       <use xlink:href="#DejaVuSans-30" x="63.623047"/>
      </g>
     </g>
    </g>
    <g id="ytick_30">
     <g id="line2d_62">
      <g>
       <use xlink:href="#m0b133322a6" x="482.07" y="321.339938" style="stroke: #000000; stroke-width: 0.8"/>
      </g>
     </g>
     <g id="text_69">
      <!-- 80 -->
      <g transform="translate(462.345 325.139157) scale(0.1 -0.1)">
       <use xlink:href="#DejaVuSans-38"/>
       <use xlink:href="#DejaVuSans-30" x="63.623047"/>
      </g>
     </g>
    </g>
    <g id="text_70">
     <!-- sample count -->
     <g transform="translate(456.265312 460.434219) rotate(-90) scale(0.1 -0.1)">
      <use xlink:href="#DejaVuSans-73"/>
      <use xlink:href="#DejaVuSans-61" x="52.099609"/>
      <use xlink:href="#DejaVuSans-6d" x="113.378906"/>
      <use xlink:href="#DejaVuSans-70" x="210.791016"/>
      <use xlink:href="#DejaVuSans-6c" x="274.267578"/>
      <use xlink:href="#DejaVuSans-65" x="302.050781"/>
      <use xlink:href="#DejaVuSans-20" x="363.574219"/>
      <use xlink:href="#DejaVuSans-63" x="395.361328"/>
      <use xlink:href="#DejaVuSans-6f" x="450.341797"/>
      <use xlink:href="#DejaVuSans-75" x="511.523438"/>
      <use xlink:href="#DejaVuSans-6e" x="574.902344"/>
      <use xlink:href="#DejaVuSans-74" x="638.28125"/>
     </g>
    </g>
   </g>
   <g id="line2d_63">
    <path d="M 498.939545 525.758414 
L 504.025841 524.673533 
L 509.112136 523.80244 
L 517.589294 522.657075 
L 526.066453 521.499848 
L 534.543611 520.080673 
L 546.411633 517.811555 
L 553.19336 516.345355 
L 558.279655 515.023072 
L 563.36595 513.397153 
L 566.756814 512.110358 
L 570.147677 510.65166 
L 573.53854 509.021694 
L 578.624836 506.263539 
L 583.711131 503.129686 
L 587.101994 500.819678 
L 590.492857 498.317431 
L 593.883721 495.608668 
L 597.274584 492.682876 
L 600.665448 489.535629 
L 604.056311 486.167499 
L 607.447175 482.57908 
L 610.838038 478.763052 
L 614.228901 474.69548 
L 617.619765 470.32928 
L 621.010628 465.592738 
L 624.401492 460.395098 
L 627.792355 454.63979 
L 631.183218 448.24413 
L 634.574082 441.162744 
L 637.964945 433.410882 
L 641.355809 425.083366 
L 653.223831 394.850597 
L 656.614694 387.376593 
L 658.310126 384.092563 
L 660.005557 381.177839 
L 661.700989 378.678672 
L 663.396421 376.636526 
L 665.091852 375.08705 
L 666.787284 374.059184 
L 668.482716 373.574432 
L 670.178148 373.646334 
L 671.873579 374.280127 
L 673.569011 375.472633 
L 675.264443 377.212345 
L 676.959874 379.479726 
L 678.655306 382.247698 
L 680.350738 385.482306 
L 682.046169 389.143537 
L 683.741601 393.186264 
L 687.132465 402.216446 
L 690.523328 412.150579 
L 702.39135 448.071064 
L 705.782213 457.287235 
L 709.173077 465.652382 
L 712.56394 473.088571 
L 715.954804 479.585602 
L 719.345667 485.182746 
L 721.041099 487.66463 
L 722.73653 489.94836 
L 724.431962 492.043884 
L 726.127394 493.960791 
L 727.822825 495.707969 
L 729.518257 497.293381 
L 731.213689 498.723928 
L 732.909121 500.005428 
L 734.604552 501.142683 
L 736.299984 502.139627 
L 737.995416 502.999542 
L 739.690847 503.725317 
L 741.386279 504.31974 
L 743.081711 504.785795 
L 744.777143 505.126947 
L 746.472574 505.347408 
L 749.863438 505.448074 
L 753.254301 505.14333 
L 756.645164 504.508809 
L 760.036028 503.638918 
L 770.208618 500.732799 
L 773.599481 500.042983 
L 776.990345 499.657186 
L 780.381208 499.644966 
L 783.772072 500.048942 
L 787.162935 500.881778 
L 790.553799 502.125549 
L 793.944662 503.733879 
L 797.335525 505.63704 
L 802.42182 508.855821 
L 812.594411 515.525312 
L 817.680706 518.535484 
L 822.767001 521.198747 
L 827.853296 523.525031 
L 832.939591 525.563985 
L 836.330455 526.788348 
L 836.330455 526.788348 
" clip-path="url(#p767c46cd26)" style="fill: none; stroke: #1f77b4; stroke-width: 1.5; stroke-linecap: square"/>
   </g>
   <g id="patch_98">
    <path d="M 482.07 534.04 
L 482.07 319.08 
" style="fill: none; stroke: #000000; stroke-width: 0.8; stroke-linejoin: miter; stroke-linecap: square"/>
   </g>
   <g id="patch_99">
    <path d="M 853.2 534.04 
L 853.2 319.08 
" style="fill: none; stroke: #000000; stroke-width: 0.8; stroke-linejoin: miter; stroke-linecap: square"/>
   </g>
   <g id="patch_100">
    <path d="M 482.07 534.04 
L 853.2 534.04 
" style="fill: none; stroke: #000000; stroke-width: 0.8; stroke-linejoin: miter; stroke-linecap: square"/>
   </g>
   <g id="patch_101">
    <path d="M 482.07 319.08 
L 853.2 319.08 
" style="fill: none; stroke: #000000; stroke-width: 0.8; stroke-linejoin: miter; stroke-linecap: square"/>
   </g>
   <g id="text_71">
    <!-- dataset2 (with Mn/Fe/Co/Ni) -->
    <g transform="translate(584.03625 313.08) scale(0.12 -0.12)">
     <use xlink:href="#DejaVuSans-64"/>
     <use xlink:href="#DejaVuSans-61" x="63.476562"/>
     <use xlink:href="#DejaVuSans-74" x="124.755859"/>
     <use xlink:href="#DejaVuSans-61" x="163.964844"/>
     <use xlink:href="#DejaVuSans-73" x="225.244141"/>
     <use xlink:href="#DejaVuSans-65" x="277.34375"/>
     <use xlink:href="#DejaVuSans-74" x="338.867188"/>
     <use xlink:href="#DejaVuSans-32" x="378.076172"/>
     <use xlink:href="#DejaVuSans-20" x="441.699219"/>
     <use xlink:href="#DejaVuSans-28" x="473.486328"/>
     <use xlink:href="#DejaVuSans-77" x="512.5"/>
     <use xlink:href="#DejaVuSans-69" x="594.287109"/>
     <use xlink:href="#DejaVuSans-74" x="622.070312"/>
     <use xlink:href="#DejaVuSans-68" x="661.279297"/>
     <use xlink:href="#DejaVuSans-20" x="724.658203"/>
     <use xlink:href="#DejaVuSans-4d" x="756.445312"/>
     <use xlink:href="#DejaVuSans-6e" x="842.724609"/>
     <use xlink:href="#DejaVuSans-2f" x="906.103516"/>
     <use xlink:href="#DejaVuSans-46" x="939.794922"/>
     <use xlink:href="#DejaVuSans-65" x="991.814453"/>
     <use xlink:href="#DejaVuSans-2f" x="1053.337891"/>
     <use xlink:href="#DejaVuSans-43" x="1087.029297"/>
     <use xlink:href="#DejaVuSans-6f" x="1156.853516"/>
     <use xlink:href="#DejaVuSans-2f" x="1218.035156"/>
     <use xlink:href="#DejaVuSans-4e" x="1251.726562"/>
     <use xlink:href="#DejaVuSans-69" x="1326.53125"/>
     <use xlink:href="#DejaVuSans-29" x="1354.314453"/>
    </g>
   </g>
  </g>
 </g>
 <defs>
  <clipPath id="p574a2dbaf6">
   <rect x="50.87" y="26.88" width="371.13" height="214.96"/>
  </clipPath>
  <clipPath id="pcb4bdef358">
   <rect x="482.07" y="26.88" width="371.13" height="214.96"/>
  </clipPath>
  <clipPath id="p51cf569ece">
   <rect x="50.87" y="319.08" width="371.13" height="214.96"/>
  </clipPath>
  <clipPath id="p767c46cd26">
   <rect x="482.07" y="319.08" width="371.13" height="214.96"/>
  </clipPath>
 </defs>
</svg>
